<?xml version="1.0" encoding="utf-8"?>
<!-- Generator: Adobe Illustrator 21.1.0, SVG Export Plug-In . SVG Version: 6.00 Build 0)  -->
<svg version="1.1" id="Layer_1" xmlns="http://www.w3.org/2000/svg" xmlns:xlink="http://www.w3.org/1999/xlink" x="0px" y="0px"
	 viewBox="0 0 257 257" style="enable-background:new 0 0 257 257;" xml:space="preserve">
<style type="text/css">
	.st0{fill:#E4EEFD;}
	.st1{fill:#F4D8A6;}
	.st2{fill:#F0B065;}
	.st3{fill:#FD9088;}
	.st4{fill:#F5B268;}
	.st5{fill:#3E4458;}
	.st6{fill:#B60E22;}
	.st7{fill:#A8C6E2;}
</style>
<title>doughnut</title>
<g>
	<path class="st0" d="M127.4,238.9c-15.1-0.2-30.3-0.4-45.2-3c-12.1-2.2-24.7-5.8-33.9-14.4c-9.4-8.9-12.3-22.7-9-35
		c3.2-11.8,12.7-22.9,26-21.4c4.8,0.5,8-4.8,2.3-6.5c-11.5-3.4-24.1,1.1-32.4,9.4c-8.9,8.9-12.7,22.2-11.7,34.6
		c2.1,27.7,28.4,40.5,52.6,45.4c16.8,3.4,34.1,3.9,51.2,4.3c3.8,0.1,8.7-2.4,8.7-6.7C136.1,241.2,131.2,239,127.4,238.9z"/>
	<path class="st0" d="M187.8,159c-4.7-0.7-11,0.5-12.8,5.6c-1.8,5.1,3,8.7,7.3,9.9c-1-0.3,0.8,0.3,1.4,0.5c0,0,1.3,0.9,1.6,1.1
		c0.7,0.7,2.1,2.5,2.8,3.9c1.9,4.1,2,8.4,0.4,12.6c-3.5,9.6-12.6,15.2-21.9,18.1c-20.8,6.7-45.5,9.1-67,4.8
		c-6.4-1.3-12.6-3.2-18.6-6c-5.6-2.6-13.9-7-12.9-14.4c0.3-2.2-3.4-1.8-4.1-0.4c-6.5,12.2,14,22.2,22.5,25.9
		c13.5,5.9,28.5,8.4,43.2,8.4c14.9,0,30.7-1.4,45.1-5.5c14.4-4.2,29.3-12.7,34.3-27.8C214.1,180.1,204.7,161.6,187.8,159z"/>
	<path class="st1" d="M192.2,163.5c0.1,0.3-0.3-3.1-0.3-3.1c0-0.2,0-0.4,0-0.6c1.1-1.5,1.8-3.2,1.9-5.3c0-0.6,0-1.1,0-1.7
		c0.6-2.3,1-4.6,1.2-7c0.2-2.7-0.9-4.9-2.6-6.6c-0.1-0.5-0.2-1-0.4-1.5c1.2-1.7,2.1-3.6,2.5-5.6c0.7-3.3,0-6.2-1.8-8.4
		c0-0.4,0-0.7,0-1.1c0.1-1.3,0.1-2.6,0.3-3.9c0.4-0.3,0.8-0.7,1.2-1.1c2-2.1,3.6-4.9,4.5-7.9c5.4-6.9,3.3-17.7-5.2-21.6
		c-0.9-0.4-1.8-0.7-2.8-1c-1.1-0.4-2.3-0.6-3.5-0.8c-1.9-1.2-4-2.1-6.2-2.6c-2.7-0.6-5.6-0.8-8.4-0.4c-3-0.2-6,0.2-8.3,1
		c-6.2-3.4-14.9-2.7-19.5,3c-0.4,0.4-0.7,0.9-1.1,1.4c-0.9-0.8-2-1.5-3.3-2.1c-6.2-2.9-17.4-1.4-19.8,6.2c-0.4,1.4-0.9,2.9-1.3,4.4
		c-2.3-0.5-4.7-0.5-6.8,0.2c-1,0.3-2,0.7-2.9,1.1c-1.3-3.6-3.2-6.9-6.3-9.8c-6.5-6.2-16.9-8.3-25.3-4.8c-4.1,1.7-7.9,4.8-9.9,8.7
		c-8.3,4.7-10.8,19.1-4.4,26.1c0.8,0.9,2,1.5,3.3,1.7c1.5,2.1,3.3,4,5.3,5.7c-4.4,2.7-6.9,6.1-8,11.3c-1,4.9-0.5,9.8,1.6,14.2
		c-6,3.4-6.9,12.5-4.2,18.7c-4.1,5-6.6,11.2-6.3,17.8c0.5,11.6,9.5,20.6,19.6,25.2c10.4,4.7,22.3,6.1,33.6,6.4
		c5.3,0.1,10.7-0.1,16-0.5c6.1-0.4,12.2-1,17.8-3.9c2.8-1.5,5.3-3.9,6-6.7c6.7,0.8,14-2.2,19.2-6.3c0.6-0.5,1.2-1,1.8-1.5
		c1.2,0.5,2.5,0.9,3.8,1.2c7.5,1.4,14.1-1.7,17.7-8.2c3.7-6.7,5.6-16.5,3.8-24C194.4,167.5,192.9,165.8,192.2,163.5z"/>
	<path class="st2" d="M181.9,88.3c-4.1-1.2-8.3-2-12.5-2.5c-3.6-0.4-7.5-0.1-10.2,2.7c-1.8,1.9-2.7,4.8-1.5,7.2
		c-2.2-0.2-6.1,1.5-8.2,2c-1.2,0.3-2.8,0.9-4.3,1.2c-0.7,0-1.4,0.1-2.1,0.1c0-0.1,0-0.2,0-0.3c0-6.7-9.3-8.6-14.2-6.3
		c-3.3,1.5-5.5,3.6-6.8,6.4c-3.4-0.4-6.8-0.9-10.2-1.6c-2.6-0.5-5.2-1.2-7.8-1.8c1-1,1.8-2.2,2-3.7c0.6-4.2-3-7.8-7.1-8.3
		c-7-1-15.3-0.6-21.3,3.7c-6.1,4.4-5.8,11.8,0,16.3c0.5,0.4,1.1,0.8,1.7,1.1c1.7,2.2,4.8,3.1,7.7,3.7c1.1,1.1,2.7,1.9,4.3,2.4
		c10,2.9,20.2,4.2,30.4,4c12.3,0.8,24.4-0.2,36.6-1.6c10.9-1.2,22.7-3.9,29.3-13.4C191.3,94.1,186.8,89.7,181.9,88.3z"/>
	<path class="st3" d="M160.5,65.8c-0.6-0.3-1.2-0.6-1.8-0.8c-4.3-4.9-12.8-5.6-18.5-1.8c-0.3,0.2-0.5,0.4-0.7,0.6
		c-3.1,0.1-6.4,1.4-8.6,3.6c-0.3,0.3-0.6,0.7-0.9,1c-1.5-2.6-4-4.4-7.9-5c-1.8-0.3-3.7-0.3-5.5,0c-4.4-1.7-9.8-1.3-13.9,0.9
		C95.4,68,89.6,78,92,86.2c1.3,4.3,5,7.2,9,8.8c0.7,0.3,8.1,2.3,7.9,3.1c-2,9.1,12,9.9,15.6,3.3c2.1-3.9,4.9-10.5,6.4-17.1
		c2.7,4.6,6.2,9.2,7.1,13.3c1,4.4,6.4,5.3,10.6,3.8c2.8,0.5,5.8,0.1,7.6-1.7C164.5,91.7,175.1,73.5,160.5,65.8z"/>
	<path class="st2" d="M188.8,124c-1.3-2.5-4.6-2.6-6.9-1.8c-1.7,0.6-3.3,1.3-4.9,2.2c-1,0.6-2,1.2-2.9,1.9c-30.8,5.4-64,7.5-94.1-2
		c-3-0.9-7.4,0.6-8.5,3.7c-1.2,3.5,2,5.7,4.8,6.5c18.4,5.7,36.8,6.3,55.3,5c16.8,0.3,33.6-1.6,49.9-5.7c3.3-0.8,4.3-3,3.7-4.9
		c0.1,0,0.3,0,0.4,0C188,128.8,189.9,126.2,188.8,124z"/>
	<path class="st4" d="M190.7,155.6c-1.5-2.8-4.5-3.9-7.4-3.8c-1.9-2.4-5.5-2.9-8.4-2.5c-8.4,1.4-16.5,4.4-25,5.8
		c-8.3,1.4-16.7,2-25.2,2.2c-8.3,0.2-16.6-0.2-24.9-1.2c-8.6-1-17-2.8-25.6-3.6c-1.4-0.1-3.1,1.8-1.5,2.8c0.4,0.3,0.9,0.5,1.3,0.7
		c-4.9,10.7,41.1,15.6,47.2,16c21.7,1.5,43.4-1.3,64.1-7.9C189.1,163.1,193.1,160.1,190.7,155.6z"/>
	<path class="st2" d="M187.6,183.5c-1.7-3.3-5.6-3.7-8.9-3.4c-4.1,0.4-8.1,2.2-12,3.3c-1.5,0.4-3.1,0.8-4.6,1.1
		c-4.3,0.8-8.5,1.8-12.8,2.4c-0.2,0-0.4,0.1-0.6,0.1c-0.6,0.1-1.3,0.2-1.9,0.3c-5.8,0.8-11.7,1.2-17.5,1.4
		c-17.1,0.5-34.1-1.7-50.5-6.5c-2.6-0.8-5.4,2.8-2.2,4.1c0.2,0.1,0.5,0.2,0.7,0.3c1,5.6,9.4,7.1,14,8.1c9.2,2.2,18.5,3.5,28,4.1
		c9.2,0.6,18.5,0.5,27.7-0.1c9.4-0.7,19.8-1.5,28.7-4.9c0.1,0,0.2-0.1,0.3-0.1c3.1-0.7,6.1-1.5,8.6-3
		C187.2,189.2,189.3,186.6,187.6,183.5z"/>
	<path class="st5" d="M163.1,210.2c-1.5-4.2-6.7-6.5-10.9-6.5c-4.1,0-9.9,2.2-9.7,7.1c0.2,3.7,3.3,6.1,6.8,6.5
		C152.7,222.2,166.3,219.2,163.1,210.2z"/>
	<path class="st5" d="M190.4,204.3c0.4-0.9,0.7-1.8,0.8-2.8c0.5-3.7-5.1-5.2-7.7-4.5c-0.3,0.1-0.6,0.2-0.9,0.3
		c-2.8-0.3-5.7,0.6-7.8,2.2c-1.8,1.4-3.1,3.5-3.1,5.8c0,2,1.6,3.4,3.4,4.2c0,1.3,0.6,2.7,1.9,3.6c2.7,1.9,6.7,2.1,9.4,0
		c1.1-0.9,2.2-1.7,3.3-2.7C191.9,208.4,191.8,206,190.4,204.3z"/>
	<path class="st5" d="M208.9,173.1c-0.4-0.9-1-1.7-1.8-2.4c-0.2-0.1-0.4-0.3-0.6-0.4c-0.5-1.2-1.6-2.3-2.8-2.8
		c-2.8-1.3-6.4-0.9-8.9,0.9c-0.3,0.2-0.5,0.4-0.7,0.6c-2.2,1.2-3.4,3.8-2.4,6.1c-0.3,3.2,2.8,5.5,5.7,6.1c2.9,0.6,6.1,0.1,8.5-1.6
		c0.5-0.4,1-0.8,1.3-1.3c0.6-0.4,1.1-1,1.4-1.7C209.1,175.6,209.4,174.3,208.9,173.1z"/>
	<path class="st6" d="M174.5,195.1c-0.8-1.2-1.9-2.3-3.2-3c-2.1-1.3-4.9-1.5-7.3-1c-0.8,0.2-1.6,0.5-2.4,0.9
		c-0.4,0.2-0.9,0.5-1.3,0.7c-2.5,1.7-4,4.6-3.1,7.5c-0.6,2.5,0.8,5.1,2.9,6.6c3.2,2.3,7.9,2.3,11.3,0.6c3.1-1.5,6.6-4.6,6.6-8.3
		C178,197.1,176.3,195.7,174.5,195.1z"/>
	<path class="st6" d="M201.1,185.6c0-0.1,0-0.1,0-0.2c-1.8-3.6-4.7-6.3-9.1-5.8c-5,0.6-9.4,5.8-8.8,10.9c0.6,4.3,6,6.1,9.7,4.2
		c0.7-0.3,1.3-0.6,2-0.9c0,0,1.3-0.7,1.1-0.6c1.4-0.5,2.5-0.7,3.8-0.9c1.6-0.2,3.3-1.6,3.6-3.2C203.4,187.6,202.5,186.4,201.1,185.6
		z M198.9,184.6c-0.9-0.3-1.9-0.5-2.9-0.7C196.9,183.6,198.1,183.9,198.9,184.6z"/>
	<path class="st6" d="M152.6,56.8C143,53,130.7,56.4,129,67.5c-0.1,0.8-0.2,1.5-0.2,2.3c-3-7-8.9-12.6-17.4-14.4
		c-9.1-1.9-20.1,1.8-23.7,10.9c-3.2,7.9,1.6,15.1,8.4,18.5c0.3,0.4,0.5,0.7,0.9,1c0.1,0.2,0.3,0.3,0.4,0.4c0.3,3.7,1.9,7.1,5.2,9.2
		c1.4,2.2,3.7,3.7,6.5,3.5c0,1,0.2,2,0.5,3.1c1.4,4.3,8.8,3.7,10.1-0.1c0,0,0.1,0.1,0.1,0.1c0.2-0.8,0.6-1.6,0.9-2.4
		c2.1-0.1,4.2-0.9,5.2-2.3c3.8-5.2,5.4-11.4,5.2-17.5c1.7,3.6,3.6,6.9,4,10.7c-1.3,2-1.5,4.4,0.3,6.8c2.9,3.8,9.4,4.8,13.6,2.7
		c8.6-4.2,15.6-11.6,16.8-21.4C167,69.6,161.2,60.1,152.6,56.8z"/>
	<path class="st7" d="M130,209.1c-0.6,0-0.6,0.7,0,0.7C130.6,209.9,130.6,209.1,130,209.1z"/>
	<path d="M222.1,162.1c-5.9-11-18-16.3-29.2-20.6c1.8-3.5,2.5-7.5,1.4-12c0,0,0,0,0-0.1c0-0.9-0.1-1.9-0.3-2.8
		c-0.5-2.3-1.6-4.3-3.2-5.7c4.8-3.1,8.6-7.3,9.9-13.3c3.7-4.9,4.1-11.2,0.3-16.3c-4.7-6.4-12.5-7.9-20-8.4c-0.3-0.4-0.7-0.7-1.2-0.7
		c-4.5-0.3-9.1-0.6-13.6-0.9c0.2-0.4,0.4-0.8,0.6-1.2c2.1-4.6,2.6-9.1-0.9-13.2c-4-4.5-10.5-5.3-16.1-6.1c-3.1-0.4-6.1-0.7-9.2-0.8
		c-2.5-0.1-6.1-0.7-8.3,1c-1.8,1.4-2.6,4.1-2.8,6.9c-4.5-5.9-11.9-8.7-19.5-7.8c-8.6,1-19.3,6.2-19.7,16c0,1.3,0.1,2.6,0.3,3.9
		c-0.1,0-0.2,0-0.3,0c-7.5,1.3-14.5,4.2-20.5,8.9c-4.3,3.3-8.7,8.1-9.1,13.7c-3.2,7.1,0,15.5,5.9,20.3c0.9,0.7,1.8,1.3,2.7,1.9
		c-2.9,1.9-4,5-3.6,8.2c-0.3,0.1-0.5,0.3-0.7,0.7c-2.2,4.4-1.3,9.3,1.7,13.1c0.2,0.2,0.3,0.4,0.5,0.6c-4.2,1.3-6.3,4.9-6.8,8.9
		c-0.4-0.6-1.2-1-2.1-0.5c-18.5,11-35.9,31.1-25.8,53.7c5.4,12.2,16.1,21,28.3,27.2c6.3,4.8,13,9,20.6,11.8
		c13.1,4.8,27.3,5.3,41.1,5.7c26.5,0.7,55.5-1.6,75.5-21.2c0.3-0.3,0.4-0.6,0.5-0.9c1.1-0.7,2.2-1.4,3.3-2.1
		c9.8-6.8,16.6-16.2,20.2-27.6C226,190,228.6,174.2,222.1,162.1z M132.7,69.9c0.3-3.7,0.8-6.2,4.8-6.7c4.7-0.6,10.3,0.5,14.9,1.3
		c4.2,0.7,9.1,1.7,11.6,5.5c3,4.6-0.7,10.1-2.9,14.3c-2.8,5.3-12.3,21.7-20.1,15.1c-3.3-2.9-4.5-8.6-5.7-12.6
		c-0.6-2-1.1-3.9-1.6-5.9c0-2.1-0.4-4.3-1-6.3C132.6,72.9,132.6,71.4,132.7,69.9z M93.5,74.7c1.9-9.7,16.7-13.2,24.9-10.7
		c5.1,1.6,8.7,5.2,10.6,9.7c0.4,2.5,0.9,4.9,1.5,7.4c0,2.3-0.3,4.6-1,6.8c-1.5,4.6-4.7,9.3-9.1,11.6c-2.8,1.5-6.1,1.6-8.8,0.4
		c0.4-0.8,0.3-2.1-0.8-2.5C102.5,94.1,91.5,84.6,93.5,74.7z M63.9,103.2c0.3-0.5,0.3-1,0.1-1.4c0.7-3.8,3.5-6.9,6.5-9.4
		c5.9-5,13-8,20.6-9.3c0.1,0,0.2-0.1,0.3-0.1c2.3,6.3,7.9,11.6,13.7,15c4.3,7.5,14.2,7,20.2,1.9c3.4-2.9,5.9-6.9,7.3-11.2
		c0.7,2.1,1.4,4.3,2.2,6.3c1.6,4,4.3,8.4,9.1,8.7c5.4,0.3,10.4-4.1,13.6-8c2.9-3.5,5.2-7.4,7.2-11.5c4.1,0.3,8.1,0.6,12.2,0.8
		c0.2,0.4,0.7,0.7,1.3,0.7c7.2,0.3,15.4,0.9,20.1,7.2c2.9,3.8,2.6,7.8,0.6,11.2c-0.6,0.2-1,0.7-1.1,1.4c0,0.1,0,0.2-0.1,0.3
		c-1.1,1.4-2.5,2.7-4.1,3.7c-5,3.4-11,5-16.8,6.4c-7.3,1.8-14.8,2.9-22.3,3.5c-14.4,1.3-28.9,0.9-43.3,0.3
		c-13.3-0.6-30.1,0.5-41.7-7.3c-3.1-2.1-5.8-5.3-5.8-9.2C63.8,103.3,63.9,103.3,63.9,103.2z M67.7,119.7c-2.7-2.5-4.7-6.1-5.1-9.7
		c2.5,3.8,6.8,6.4,10.9,8.1c8.4,3.3,17.6,3.9,26.6,4.4c18.6,1,37.4,1.9,56,0.1c8.8-0.8,17.5-2.3,26-4.6c4.6-1.3,9.3-2.9,13.3-5.6
		c-1.8,2.8-4.5,5-7.6,6.6c-0.7-0.2-1.4-0.4-2.1-0.4c-1.3-0.1-1.8,1.1-1.4,2.1c-5.9,2.4-12.6,3.5-18,4.5c-13.5,2.4-27.3,3.4-41,3.4
		c-13.1,0-26.4-0.6-39.5-2.2C79.5,125.6,72.5,124.2,67.7,119.7z M72,127c0.3-0.1,0.5-0.3,0.7-0.4c8.1,3.5,17.9,3.6,26.4,4.3
		c26.2,1.9,53.2,1.7,78.8-4.7c3.4-0.9,6.9-2,10-3.6c4.1,2.2,3.8,9.1,1.1,12.4c-3.7,4.7-10.1,6.3-15.7,7.8
		c-12.9,3.5-26.2,5.1-39.5,5.3c-13.4,0.2-26.8-1-40-3.1c-5.7-0.9-11.9-1.6-17.4-3.7c-3.1-1.2-6.4-3.2-7.3-6.7
		C68.3,131.8,68.9,128.2,72,127z M67,137.4c1,2,2.6,3.9,4.4,5.1c5.2,3.3,11.9,4,17.8,5c6.8,1.2,13.7,2.1,20.6,2.8
		c14.9,1.4,30,1.5,44.9-0.5c6.8-0.9,13.6-2.2,20.2-4.1c5.1-1.4,10.5-3.1,14.6-6.6c0.7-0.6,1.3-1.2,1.9-1.9
		c-2.1,8.9-13.5,13.7-22,15.5c-12.4,2.7-25.2,3.9-37.9,4.1C122,156.7,62.2,155.4,67,137.4z M69.3,150.2c0.3-0.1,0.5-0.2,0.7-0.3
		c3.9,2.7,8.8,3.9,13.3,4.9c15.3,3.4,31,5.2,46.7,5.1c15-0.1,31.1-1.2,45.5-5.5c5.1-1.5,10.2-4.3,13.9-8.1c4.1,4.3,3.8,11.1,0.7,16
		c-3.8,6-10.9,8.8-17.4,10.7c-14.4,4.3-29.7,6.2-44.7,6.3c-15.3,0.1-30.5-1.9-45.2-6c-6.1-1.7-13.5-3.6-17.4-9.1
		C62.1,159.6,62.9,151.3,69.3,150.2z M63.5,167c3.7,4.3,9.2,6.6,14.5,8.2c7.2,2.2,14.7,3.9,22.2,5.1c14.9,2.4,30,2.8,45,1.2
		c7.3-0.8,14.6-2,21.7-3.7c6.2-1.5,12.7-3.2,18.2-6.5c3-1.8,5.6-4.5,7.6-7.6c-0.5,11.5-13.7,18.3-24.1,20.4
		c-12.8,2.5-26.2,3.4-39.2,4c-13.1,0.6-26.3,0.1-39-3.1c-9.6-2.4-26.7-7.9-27.8-19.5C62.7,166,63.1,166.5,63.5,167z M198.8,186.4
		c1.8,2.7,0.8,7.1-2.1,8.5c-1,0.5-2.2,0.6-3.3,0.5c0-0.8-0.5-1.6-1.5-1.6c-0.9,0-1.6-0.2-2.2-0.5c-0.3-0.4-0.6-0.9-0.8-1.4
		c-0.2-0.6-0.6-0.9-1.1-1c-0.6-2.1,0.1-4.7,2.2-6.1C192.8,183,197,183.7,198.8,186.4z M192.9,176.9c0.4-2.6,1.7-5,4.1-6.4
		c3.6-2.1,8.8-1.1,10.2,3.2c1.2,3.6-1.3,6.8-4.8,7.5C198.6,181.8,195.2,179.5,192.9,176.9z M171.4,206.6c-1.2,0.4-2.6,0.3-4,0
		c-0.6-0.1-1.2-0.3-1.8-0.5c-0.6-3.2-2.6-5.9-6.3-6.7c-0.1-0.5-0.3-0.9-0.7-1.1c0.4-2.9,3.6-5.1,6.6-5.6c1.9-0.3,4.1-0.4,6,0.1
		c2.4,0.6,3.5,2.2,3.8,4.3c-0.2,0.1-0.3,0.2-0.5,0.3C172.2,199.9,171,203.4,171.4,206.6z M162.7,208.4c-0.1,5.2-4.5,11.5-10.6,9.9
		c-3.6-0.9-6.9-4.6-6.1-8.6c0.2-0.8,0.5-1.6,1-2.2c2.4-0.3,5.2-0.9,6.2-3.1c0.8,0,1.7,0.2,2.5,0.6c0.9,0.5,1.8,0,2.2-0.7
		C159.1,206.1,160.8,207.4,162.7,208.4z M155.9,201.7c-3.9-1.2-8.1,0.1-10.8,3.2c-3.3,0.5-7.2,0.7-8,0.8c-3.5,0.3-7,0.5-10.6,0.4
		c-8.3,0-16.5-0.9-24.6-2.2c-7.2-1.1-14.6-2.3-21.7-4.2c-3.5-0.9-7.1-2.3-9.5-5.2c-0.9-1.1-1.5-2.3-1.8-3.4c0.1-0.3,0.2-0.5,0.3-0.8
		c0.3-0.8,0-1.4-0.5-1.7c0.1-2.3,1-4.7,2.2-7.1c0.1-0.2,0.1-0.4,0.2-0.5c0.8,0.5,1.6,0.9,2.4,1.3C84,187.6,96,190,107.8,191
		c12.6,1,25.3,0.3,37.9-1c11.6-1.1,24.4-1.5,35.1-6.6c3.3-1.6,6.3-3.8,8.8-6.5c-0.1,1-0.2,2-0.1,3c0,0.5,0.3,0.9,0.7,1.2
		c-1.6,0.6-3.1,1.6-4.1,3.1c-2.4,3.4-2,7.7,0.4,10.4c-2.7-0.8-5.8-0.3-8.2,1.7c0,0,0,0,0,0.1C176.7,183.1,150.8,189.7,155.9,201.7z
		 M143.2,208.1c-0.3,0.8-0.4,1.6-0.5,2.4c-13.8,2.7-28,3-41.9,0.5c-6.6-1.2-13.1-2.9-19.4-5.3c-3.9-1.5-9-3.8-11.5-7.4
		c0.3,0.3,0.6,0.5,1,0.8c3.4,2.5,7.5,3.6,11.6,4.5c5.4,1.2,10.8,2.2,16.3,3.1c10.2,1.7,20.5,2.8,30.8,2.6
		C134.1,209.2,138.7,208.8,143.2,208.1z M178.4,198.6c0.6,0.5,1.5,0.7,2.2,0c2.7-2.3,6.9-1,8.5,2c1.9,3.7,0,8.6-3.4,10.6
		c-4.4,2.7-8.8,0.3-10.4-3.4C177.5,205.7,178.4,202.1,178.4,198.6z M122.5,251c-13.1-0.3-26.5-0.8-38.9-5.1c-2-0.7-3.8-1.5-5.7-2.3
		c4.5,1.4,9,2.5,13.3,3.4c25.7,5.1,52.5,2.7,77.8-3.5c6.2-1.5,12.4-3.3,18.3-5.8C168.6,250.2,144.6,251.6,122.5,251z M220.3,196.5
		c-2.9,11.6-8.4,21.8-17.9,29.2c-8.7,6.6-19.1,10.6-29.5,13.5c-22.2,6.1-45.8,9-68.7,6.6c-13.9-1.4-28.8-5-41.7-11.7
		c-4.1-3.1-8-6.4-11.8-9.7c-0.8-0.7-1.8-0.4-2.4,0.2c-2.2-1.9-4.2-3.9-6.1-6c-8.2-9.3-11.9-21.6-7.3-33.6
		c4.5-11.6,14.8-20.1,25.2-26.2c0.1-0.1,0.3-0.2,0.4-0.3c0,0.1,0,0.2,0,0.2c-0.2,0.2-0.4,0.4-0.5,0.8c-2.5,8.3,2.1,15.4,8.6,20.1
		c-0.2,0.1-0.3,0.3-0.4,0.5c-1.9,3.6-2.8,7.3-2.4,10.6c-4.4,14.4,19.2,20,28.8,22.3c16,3.7,32.6,3.9,48.8,0.8
		c1.1,3.7,4.4,6.8,8.2,7.8c8,2.1,13.8-5.1,14.5-11.9c1.1,0.3,2.2,0.5,3.3,0.5c1.2,0.1,2.3-0.1,3.3-0.4c0.4,0.8,0.9,1.6,1.5,2.3
		c3.8,4.2,10.4,4.7,14.8,1c4.3-3.5,5.8-10.3,2.5-15c2.4,0.9,5.1,0.9,7.5-0.5c4.4-2.7,5.6-9,2.6-13.2c1.2,0,2.4-0.3,3.6-0.7
		c4.8-1.9,7-7,5-11.8c-2-4.8-7.5-6.8-12.4-5.2c-1,0.3-1.9,0.8-2.7,1.3c1-3.2,1.1-6.6,0.3-10.1c0,0,0,0,0,0c1.2-4.6,0.7-9.4-2.8-13.3
		c9.6,3.7,19.9,8.1,25.8,17C224.8,171.8,223.1,185.2,220.3,196.5z"/>
	<path d="M100.4,79.6h-0.8c-0.8,0-1.6,0.7-1.6,1.6c0,0.9,0.7,1.6,1.6,1.6h0.8c0.8,0,1.6-0.7,1.6-1.6C102,80.3,101.3,79.6,100.4,79.6
		z"/>
	<path d="M118.5,69.5l-0.8-0.8c-0.6-0.6-1.7-0.6-2.3,0c-0.6,0.6-0.6,1.6,0,2.3c0.3,0.3,0.5,0.5,0.8,0.8c0.6,0.6,1.7,0.6,2.3,0
		C119.1,71.2,119.2,70.2,118.5,69.5z"/>
	<path d="M113.4,84.4h-0.8c-0.8,0-1.6,0.7-1.6,1.6c0,0.9,0.7,1.6,1.6,1.6h0.8c0.8,0,1.6-0.7,1.6-1.6
		C114.9,85.2,114.3,84.4,113.4,84.4z"/>
	<path d="M123.9,84.4c-2.1,0-2.1,3.2,0,3.2C126,87.7,126,84.4,123.9,84.4z"/>
	<path d="M138.5,74.7c-0.9,0-1.6,0.7-1.6,1.6v0.8c0,0.8,0.7,1.6,1.6,1.6c0.9,0,1.6-0.7,1.6-1.6v-0.8
		C140.1,75.5,139.3,74.7,138.5,74.7z"/>
	<path d="M159.5,76.3c-2.1,0-2.1,3.2,0,3.2C161.6,79.6,161.6,76.3,159.5,76.3z"/>
	<path d="M143.3,88.5c-0.9,0-1.6,0.7-1.6,1.6v0.8c0,0.8,0.7,1.6,1.6,1.6c0.9,0,1.6-0.7,1.6-1.6v-0.8
		C144.9,89.3,144.2,88.5,143.3,88.5z"/>
	<path d="M146.6,75.5c-0.9,0-1.6,0.7-1.6,1.6v0.8c0,0.8,0.7,1.6,1.6,1.6c0.9,0,1.6-0.7,1.6-1.6v-0.8
		C148.2,76.3,147.4,75.5,146.6,75.5z"/>
	<path d="M152.2,69.1c-2.1,0-2.1,3.2,0,3.2C154.3,72.3,154.3,69.1,152.2,69.1z"/>
	<path d="M170.9,197.8c-0.5-0.9-1.5-1.4-2.5-1.3c-0.5,0.1-0.9,0.3-1.3,0.6c0,0,0,0,0,0c-0.7,0.2-1.5,1.1-1.1,2
		c0.7,1.5,2.1,2.7,3.8,2.6c0.8-0.1,1.7-0.7,1.6-1.6C171.4,199.3,171.3,198.5,170.9,197.8z"/>
	<path d="M130.5,17.1c-0.9-4.2-4.3-7.1-8.3-8c0-0.4,0-0.7,0-1.1c0-1.1-2.3-1.4-2.4-0.3c0,0.4-0.1,0.7-0.1,1.1
		c-1.2,0-2.4,0.1-3.5,0.5c-1.1,0.3-0.3,1.6,0.6,1.3c0.9-0.2,1.9-0.3,2.8-0.3c-0.7,6.6-1.7,12.9-3.2,19.3c-0.1,0.1-0.3,0.2-0.4,0.3
		c-0.6,0.6-0.5,1.2-0.1,1.7c-0.7,3.1-1.5,6.1-2.4,9.2c-0.4,1.6,2.6,2.3,3.1,0.8c1.1-3.3,2-6.7,2.8-10.1c2.7-1.7,6-2.2,8.3-4.6
		C130.1,24.3,131.2,20.5,130.5,17.1z M127.2,22.2c-1.5,3.5-4.2,4.2-6.9,5.3c1-5.5,1.6-11.1,1.9-16.6
		C126.5,12.4,129.3,17.2,127.2,22.2z"/>
	<path d="M232.2,72.3c-4.3,1.4-9.1-0.2-11.4-3.9c4.8-3.3,8.9-10.3,4.3-14.8c-2.2-2.1-5.2-1.5-7,0.7c-2.6,3.1-3.3,7.6-2.4,11.4
		c0.1,0.5,0.2,0.9,0.4,1.3c-0.3,0.1-0.6,0.2-0.9,0.2c-4.9,0.8-8.8-3.2-9.7-7.7c3.9-2.4,6.1-6.2,6.1-11c0-0.9-1.3-1.6-2.1-1.6
		c-1.6,0.1-3.2,0.5-4.6,1c4.7-4.9,8.2-10.9,9.9-17.6c0.5-2-2.7-2.5-3.7-1.3c-4.7,5.5-8.4,11.8-11,18.4c-1.5,1.3-3.1,2.6-4.8,3.7
		c-0.7,0.4-2.9,2.2-4,2.2c-5.1,0.1-1.6-6.4-0.4-8.2c0.8-1.3-1.4-2.5-2.4-1.9c-1.1,0.6-2,1.3-2.9,2.3c-1.3,1.5-2.7,5.1-4.8,5.4
		c-1,0.9-1.6,0.5-1.9-0.9c-0.9-0.7-1.1-1.5-0.4-2.4c0.3-1.3,1.5-2.8,2.4-3.7c1.9-1.9,4.4-3,7.1-3.4c0.6-0.1,0.2-0.7-0.2-0.7
		c-3.6,0-6.8,1.2-9.4,3.8c-0.7,0.7-1.5,1.7-2.2,2.8c-0.4-0.6-1.6-1-2.3-0.8c-1.9,0.7-3.7,2-5.7,2.4c-4,0.8-6.8-2.2-4.9-6
		c1.2-2.4,2.9-4.5,4.7-6.5c0.3,0,0.6,0,0.8,0c1.4,0,1.5-1.1,0.9-1.8c0.4-0.5,0.8-0.9,1.2-1.3c0.4-0.5-0.6-0.9-1-0.6
		c-0.6,0.4-1.2,0.9-1.9,1.4c-3.8-0.2-7.3,1.2-9.9,3.7c-0.3-2.9-1.3-5.3-3.9-5.8c-1.6-0.3-2.9,0.3-4.1,1.4c-0.1-0.9-0.2-1.9-0.3-2.8
		c-0.2-1.1-2.5-2.1-3.1-0.8c-1.9,4-4.2,7.6-7,10.9c0.3-4,0.6-8,0.8-12c0,0,0,0,0,0l0,0c0-0.1,0-0.2,0-0.3c0.1-1.1-1.5-1.5-2.4-1.2
		c-0.9-1-2.2-1.6-3.5-1.7c-4.8-0.2-8.3,6.2-9,10.2c-0.7,3.6,1.6,7.9,5.8,7.4c2.1-0.3,3.9-2.1,5.2-4.4c-0.1,1.9-0.3,3.9-0.4,5.8
		c-0.1,1.3,1.8,2.3,2.8,1.3c3.1-2.9,5.7-6.1,7.9-9.7c-0.1,1-0.2,2-0.4,2.9c-0.7,1.8-1.2,3.5-1.5,4.7c-0.4,1.7,2.6,2.3,3.2,0.8
		c0.6-1.5,1.1-3,1.4-4.5c0.1-0.2,0.1-0.3,0.2-0.5c0.9-1.7,1.5-3.8,3.5-3.1c2,0.7,1.9,3.8,1.3,6.5c-0.4,1-0.6,1.9-0.8,3
		c-0.2,1.7,2.7,2.4,3.2,0.8c0.2-0.6,0.4-1.5,0.6-2.4c1.1-3.2,3.5-5.7,6.6-6.9c-3.3,3.3-6,7.5-3.7,11c3.4,5.1,10.8,3.6,15,0.5
		c-0.5,1.4-0.6,2.9,0.1,4.2c1.2,2,4,2.2,6,1.6c1.5-0.4,2.6-1.4,3.6-2.5c0.1,1.4,0.6,2.8,2,4c2.9,2.6,6.6,0.9,9.5-0.7
		c0.5-0.3,1-0.6,1.4-0.9c-0.1,0.3-0.1,0.5-0.2,0.8c-1,2-1.6,4.4-1.4,6.9c0.1,1.6,3.5,2.3,3.7,0.5c0.3-2.1,0.8-4.1,1.3-6.1
		c1.2-2.4,3.3-4.2,5.9-5.1c-0.6,3-2.4,5.4-5.2,6.9c-0.5,0.3-0.9,0.7-0.8,1.3c0.9,7.5,8.5,13.3,16,11.3c3.6,5.3,10.8,7.4,17,5.3
		C237.1,74.5,234.2,71.7,232.2,72.3z M130.3,38.9c-1.6,0.5-2.2-0.1-1.9-1.8c-0.4-0.8-0.5-1.6-0.2-2.5c0.1-1,0.7-2.1,1.1-3
		c0.4-0.9,0.8-1.8,1.4-2.6c0.3-0.5,0.6-0.9,1-1.3c1.4-1.9,3.1-1.7,5.3,0.6C135.9,32.2,133.8,39,130.3,38.9z M221.9,57.3
		c1.3,0,1.6,0.7,0.9,2.1c-0.4,2.2-1.6,4.3-3.4,5.8c-0.3-1.5-0.3-3.1,0-4.6c0.2-0.8,0.4-2,0.9-2.6C220.5,56.9,221,56.7,221.9,57.3z"
		/>
</g>
</svg>
