<?xml version="1.0" encoding="utf-8"?>
<!-- Generator: Adobe Illustrator 21.1.0, SVG Export Plug-In . SVG Version: 6.00 Build 0)  -->
<svg version="1.1" id="Layer_1" xmlns="http://www.w3.org/2000/svg" xmlns:xlink="http://www.w3.org/1999/xlink" x="0px" y="0px"
	 viewBox="0 0 223 251.2" style="enable-background:new 0 0 223 251.2;" xml:space="preserve">
<style type="text/css">
	.st0{fill:#F5DC48;}
	.st1{fill:#E5B93E;}
	.st2{fill:#E6B93E;}
	.st3{fill:#FEFEFD;}
</style>
<title>basil</title>
<g>
	<path class="st0" d="M64.1,44.2c-0.2-1.3-0.6-2.6-1.3-3.8c-0.3,0.2-0.6,0.1-0.8,0.2c-0.7,0.1-1.5,0.2-2.2,0.3
		c-0.8,0.1-1.1-0.6-0.9-1.1c0.3-0.8,0.6-1.6,0.9-2.4c0.1-0.2,0.2-0.4,0.2-0.6l0,0v0c-1.6-1.4-3.4-2.3-5.5-2.7
		c-0.3,0.7-0.7,1.3-1.1,2c-0.1,0.2-0.3,0.5-0.4,0.7c-0.3,0.7-1.2,0.6-1.5,0.1c-0.5-0.9-1.1-1.8-1.5-2.7c0,0,0,0,0,0
		c-0.8,0.1-1.5,0.4-2.3,0.7c-1.2,0.5-2.3,1.1-3.3,2c0.4,0.8,0.6,1.6,1,2.4c0.1,0.2,0.2,0.4,0.2,0.6c0.1,0.7-0.3,1.1-1,1
		c-0.9-0.1-1.8-0.3-2.7-0.4c-0.1,0-0.2,0-0.2-0.1c0,0,0,0,0,0c0,0,0,0.1-0.1,0.1c-1,1.9-1.4,3.8-1.3,5.9c0.7,0.2,1.4,0.4,2.1,0.6
		c0.3,0.1,0.6,0.2,0.9,0.3c0.7,0.2,0.8,0.9,0.3,1.4c-0.8,0.7-1.5,1.5-2.3,2.1v0c0.1,0.4,0.3,0.8,0.5,1.1c0.8,1.5,1.9,2.7,3.3,3.7
		c0-0.1,0.1-0.1,0.2-0.2c0.8-0.5,1.6-1,2.3-1.6c0.3-0.2,0.6-0.3,0.9-0.1c0.3,0.2,0.4,0.5,0.4,0.9c0.1,0.9,0.1,1.9,0.2,2.8
		c0,0.1,0,0.2-0.1,0.2c0,0,0,0,0,0c0.7,0.2,1.4,0.3,2.1,0.4c1.4,0.1,2.8,0,4.1-0.4c-0.1-0.1-0.1-0.2-0.1-0.3
		c0.1-0.7,0.1-1.4,0.2-2.2c0-0.3,0-0.6,0.1-0.9c0.1-0.5,0.7-0.7,1.1-0.5c0.9,0.5,1.8,1.2,2.7,1.8c0,0,0,0,0,0.1c0,0,0,0,0,0
		c1.7-1.3,3-2.9,3.9-4.8c-0.2-0.1-0.4-0.3-0.6-0.5c-0.6-0.5-1.1-1.1-1.7-1.5c-0.6-0.5-0.4-1.4,0.3-1.5c1-0.2,1.9-0.6,2.9-0.9
		C64.2,45.7,64.2,44.9,64.1,44.2z M58.4,49.9c-0.2,0.2-0.3,0.1-0.5-0.1c-0.6-0.5-1.2-1-1.8-1.4c-0.5,0.6-1,1.2-1.8,1.5
		c-1.7,0.7-3.3,0.6-4.7-0.6c-0.3-0.2-0.5-0.6-0.8-0.8c-0.5,0.3-1,0.6-1.4,0.8c-0.2,0.1-0.3,0.1-0.4-0.1c-0.1-0.2,0-0.3,0.1-0.4
		c0.5-0.3,1-0.6,1.5-0.8c-0.7-1.2-0.8-2.5-0.2-3.8c0.4-1.1,1.2-1.9,2.3-2.4c0,0,0,0,0,0c-0.1,0-0.1-0.1-0.1-0.2
		c-0.2-0.5-0.4-0.9-0.6-1.4c-0.1-0.2-0.1-0.3,0.1-0.4c0.2-0.1,0.3,0,0.4,0.2c0.2,0.6,0.6,1.1,0.7,1.7c1.5-0.5,2.9-0.3,4.2,0.7
		c1.2,0.9,1.7,2.2,1.7,3.7c0,0.6-0.2,1.2-0.5,1.7c0,0,0,0,0,0c0.7,0.4,1.4,0.9,2,1.5C58.4,49.6,58.5,49.7,58.4,49.9z"/>
	<path class="st1" d="M47.7,53.9c-0.8,0.5-1.5,1-2.3,1.6c-0.1,0.1-0.2,0.2-0.3,0.2c1.2,0.9,2.5,1.6,4,2c0,0,0,0,0,0
		c0-1-0.1-2.1-0.2-3.1C48.8,53.8,48.2,53.6,47.7,53.9z"/>
	<path class="st1" d="M49.2,57.4c-0.1-0.9-0.2-1.9-0.2-2.8c0-0.4-0.1-0.7-0.4-0.9c-0.3-0.2-0.6-0.1-0.9,0.1
		c-0.8,0.5-1.6,1.1-2.3,1.6c-0.1,0.1-0.1,0.1-0.2,0.2c0.1,0,0.2-0.1,0.3-0.2c0.8-0.5,1.5-1.1,2.3-1.6c0.6-0.3,1.1-0.1,1.2,0.6
		c0.1,1,0.2,2.1,0.2,3.1C49.2,57.6,49.2,57.5,49.2,57.4z"/>
	<path class="st1" d="M56.9,54c-0.3-0.2-0.6-0.3-0.9-0.2c-0.3,0.2-0.4,0.5-0.4,0.9c-0.1,1-0.2,1.9-0.2,2.9c1.5-0.4,2.8-1,4-1.9l0,0
		c-0.4-0.2-0.8-0.5-1.1-0.7C57.8,54.6,57.3,54.3,56.9,54z"/>
	<path class="st1" d="M56.6,53.7c-0.4-0.2-0.9,0-1.1,0.5c-0.1,0.3,0,0.6-0.1,0.9c-0.1,0.7-0.1,1.4-0.2,2.2c0,0.1,0,0.2,0.1,0.3
		c0.1-1,0.1-1.9,0.2-2.9c0-0.3,0.1-0.7,0.4-0.9c0.3-0.2,0.6,0,0.9,0.2c0.4,0.3,0.9,0.6,1.3,0.9c0.4,0.3,0.7,0.5,1.1,0.7
		c0,0,0-0.1,0-0.1C58.4,54.9,57.5,54.3,56.6,53.7z"/>
	<path class="st2" d="M63.8,46.6c-0.8,0.3-1.7,0.5-2.5,0.8c-0.2,0.1-0.4,0.1-0.5,0.3c-0.2,0.3-0.2,0.7,0.1,1
		c0.6,0.6,1.3,1.2,1.9,1.8c0.1,0.1,0.3,0.2,0.4,0.4c0.6-1.4,1-2.9,1-4.4h0v0C64.1,46.5,63.9,46.5,63.8,46.6z"/>
	<path class="st2" d="M60.9,48.8c0.6,0.5,1.1,1,1.7,1.5c0.2,0.2,0.3,0.4,0.6,0.5c-0.1-0.2-0.3-0.3-0.4-0.4c-0.6-0.6-1.3-1.2-1.9-1.8
		c-0.3-0.3-0.3-0.6-0.1-1c0.1-0.2,0.3-0.2,0.5-0.3c0.8-0.3,1.7-0.5,2.5-0.8c0.1,0,0.3-0.1,0.4-0.2v0c-1,0.3-1.9,0.6-2.9,0.9
		C60.6,47.5,60.3,48.3,60.9,48.8z"/>
	<path class="st1" d="M41.4,50.6c0.7-0.6,1.4-1.2,2-1.9c0.5-0.5,0.4-1.1-0.3-1.3c-0.8-0.3-1.7-0.5-2.6-0.8c-0.1,0-0.3-0.1-0.3-0.2
		c0,0.4,0,0.8,0.1,1.2c0.2,1.1,0.4,2.2,0.9,3.3l0,0C41.2,50.7,41.3,50.6,41.4,50.6z"/>
	<path class="st1" d="M43.2,47.3c-0.3-0.1-0.6-0.2-0.9-0.3c-0.7-0.2-1.4-0.4-2.1-0.6c0.1,0.1,0.2,0.1,0.3,0.2
		c0.9,0.3,1.7,0.5,2.6,0.8c0.7,0.2,0.8,0.8,0.3,1.3c-0.7,0.6-1.3,1.3-2,1.9c-0.1,0.1-0.2,0.1-0.2,0.3c0.8-0.7,1.6-1.4,2.3-2.1
		C44.1,48.2,43.9,47.5,43.2,47.3z"/>
	<path class="st1" d="M59.9,37.3c-0.3,0.7-0.6,1.5-0.9,2.2c-0.1,0.2-0.1,0.3-0.2,0.5c-0.1,0.5,0.3,0.9,0.8,0.8
		c0.6-0.1,1.2-0.2,1.8-0.3c0.4-0.1,0.9-0.2,1.4-0.2c-0.7-1.4-1.6-2.5-2.8-3.5C60,37,60,37.2,59.9,37.3z"/>
	<path class="st1" d="M59.8,37.5c-0.3,0.8-0.6,1.6-0.9,2.4c-0.2,0.5,0.1,1.2,0.9,1.1c0.7-0.1,1.5-0.2,2.2-0.3c0.3,0,0.6,0,0.8-0.2
		c-0.5,0-0.9,0.1-1.4,0.2c-0.6,0.1-1.2,0.2-1.8,0.3c-0.5,0.1-0.8-0.3-0.8-0.8c0-0.2,0.1-0.4,0.2-0.5c0.3-0.7,0.6-1.5,0.9-2.2
		C60,37.2,60,37,60,36.9l0,0C59.9,37.1,59.8,37.3,59.8,37.5z"/>
	<path class="st1" d="M51.5,36.8c0.4,0.7,1,0.7,1.4,0c0.4-0.8,0.9-1.6,1.4-2.4c0-0.1,0.1-0.1,0.2-0.2c-0.3-0.1-0.7-0.1-1-0.2
		c-1.2-0.1-2.4-0.1-3.5,0.2c0,0,0,0,0,0c0.3,0.4,0.5,0.8,0.8,1.3C51,35.9,51.2,36.4,51.5,36.8z"/>
	<path class="st1" d="M53,36.9c0.1-0.2,0.3-0.5,0.4-0.7c0.4-0.7,0.8-1.3,1.1-2c-0.1,0.1-0.1,0.1-0.2,0.2c-0.4,0.8-0.9,1.6-1.4,2.4
		c-0.4,0.7-1,0.7-1.4,0c-0.3-0.4-0.5-0.9-0.8-1.3c-0.3-0.4-0.5-0.9-0.8-1.3c0.5,0.9,1,1.8,1.5,2.7C51.8,37.5,52.6,37.6,53,36.9z"/>
	<path class="st1" d="M44.7,40.8c0.6,0,1-0.4,0.8-1c-0.2-0.5-0.4-1.1-0.6-1.6c-0.1-0.3-0.2-0.6-0.4-0.9c0-0.1-0.1-0.2-0.1-0.4
		c-1.2,1-2.1,2.1-2.8,3.5c0,0,0,0,0,0c0.9,0.1,1.9,0.3,2.8,0.4C44.5,40.8,44.6,40.8,44.7,40.8z"/>
	<path class="st1" d="M41.8,40.5c0.9,0.1,1.8,0.3,2.7,0.4c0.7,0.1,1.2-0.3,1-1c0-0.2-0.1-0.4-0.2-0.6c-0.3-0.8-0.6-1.6-1-2.4
		c0,0.1,0,0.2,0.1,0.4c0.1,0.3,0.3,0.6,0.4,0.9c0.2,0.5,0.4,1.1,0.6,1.6c0.2,0.6-0.1,1.1-0.8,1c-0.1,0-0.2,0-0.3,0
		c-0.9-0.1-1.9-0.3-2.8-0.4C41.7,40.5,41.8,40.5,41.8,40.5z"/>
	<path class="st1" d="M56.3,48C56.3,48,56.3,48,56.3,48c0.3-0.5,0.5-1.1,0.5-1.7c0.1-1.5-0.5-2.8-1.7-3.7c-1.3-1-2.6-1.2-4.2-0.7
		c-0.1,0-0.2,0.1-0.4,0.1c0,0,0,0,0,0c0,0,0,0,0,0c-1.1,0.5-1.9,1.3-2.3,2.4c-0.5,1.3-0.4,2.6,0.2,3.8c0.1,0.1,0.2,0.3,0.2,0.4h0
		c0.3,0.3,0.5,0.6,0.8,0.8c1.5,1.1,3.1,1.3,4.7,0.6c0.7-0.3,1.3-0.9,1.8-1.5C56.1,48.3,56.2,48.2,56.3,48L56.3,48z M52.2,49.8
		c-2.1,0-3.8-1.7-3.8-3.8c0-2.1,1.7-3.8,3.8-3.8c2.1,0,3.8,1.7,3.8,3.8C56,48.1,54.3,49.8,52.2,49.8z"/>
	<path class="st3" d="M56.3,48L56.3,48c-0.1,0.1-0.2,0.3-0.2,0.4C56.2,48.3,56.3,48.2,56.3,48z"/>
	<path class="st3" d="M50.9,41.8c-0.2-0.1-0.3,0-0.4,0.1c0,0,0,0,0,0C50.7,41.9,50.8,41.9,50.9,41.8z"/>
	<path class="st3" d="M48.5,48.2c0,0.2,0.1,0.3,0.2,0.4l0,0h0C48.7,48.4,48.6,48.3,48.5,48.2z"/>
</g>
<g>
	<path class="st0" d="M123.4,40.2c-0.2-1.3-0.6-2.6-1.3-3.8c-0.3,0.2-0.6,0.1-0.8,0.2c-0.7,0.1-1.5,0.2-2.2,0.3
		c-0.8,0.1-1.1-0.6-0.9-1.1c0.3-0.8,0.6-1.6,0.9-2.4c0.1-0.2,0.2-0.4,0.2-0.6l0,0v0c-1.6-1.4-3.4-2.3-5.5-2.7
		c-0.3,0.7-0.7,1.3-1.1,2c-0.1,0.2-0.3,0.5-0.4,0.7c-0.3,0.7-1.2,0.6-1.5,0.1c-0.5-0.9-1.1-1.8-1.5-2.7c0,0,0,0,0,0
		c-0.8,0.1-1.5,0.4-2.3,0.7c-1.2,0.5-2.3,1.1-3.3,2c0.4,0.8,0.6,1.6,1,2.4c0.1,0.2,0.2,0.4,0.2,0.6c0.1,0.7-0.3,1.1-1,1
		c-0.9-0.1-1.8-0.3-2.7-0.4c-0.1,0-0.2,0-0.2-0.1c0,0,0,0,0,0c0,0,0,0.1-0.1,0.1c-1,1.9-1.4,3.8-1.3,5.9c0.7,0.2,1.4,0.4,2.1,0.6
		c0.3,0.1,0.6,0.2,0.9,0.3c0.7,0.2,0.8,0.9,0.3,1.4c-0.8,0.7-1.5,1.5-2.3,2.1v0c0.1,0.4,0.3,0.8,0.5,1.1c0.8,1.5,1.9,2.7,3.3,3.7
		c0-0.1,0.1-0.1,0.2-0.2c0.8-0.5,1.6-1,2.3-1.6c0.3-0.2,0.6-0.3,0.9-0.1c0.3,0.2,0.4,0.5,0.4,0.9c0.1,0.9,0.1,1.9,0.2,2.8
		c0,0.1,0,0.2-0.1,0.2c0,0,0,0,0,0c0.7,0.2,1.4,0.3,2.1,0.4c1.4,0.1,2.8,0,4.1-0.4c-0.1-0.1-0.1-0.2-0.1-0.3
		c0.1-0.7,0.1-1.4,0.2-2.2c0-0.3,0-0.6,0.1-0.9c0.1-0.5,0.7-0.7,1.1-0.5c0.9,0.5,1.8,1.2,2.7,1.8c0,0,0,0,0,0.1c0,0,0,0,0,0
		c1.7-1.3,3-2.9,3.9-4.8c-0.2-0.1-0.4-0.3-0.6-0.5c-0.6-0.5-1.1-1.1-1.7-1.5c-0.6-0.5-0.4-1.4,0.3-1.5c1-0.2,1.9-0.6,2.9-0.9
		C123.5,41.6,123.5,40.9,123.4,40.2z M117.6,45.8c-0.2,0.2-0.3,0.1-0.5-0.1c-0.6-0.5-1.2-1-1.8-1.4c-0.5,0.6-1,1.2-1.8,1.5
		c-1.7,0.7-3.3,0.6-4.7-0.6c-0.3-0.2-0.5-0.6-0.8-0.8c-0.5,0.3-1,0.6-1.4,0.8c-0.2,0.1-0.3,0.1-0.4-0.1c-0.1-0.2,0-0.3,0.1-0.4
		c0.5-0.3,1-0.6,1.5-0.8c-0.7-1.2-0.8-2.5-0.2-3.8c0.4-1.1,1.2-1.9,2.3-2.4c0,0,0,0,0,0c-0.1,0-0.1-0.1-0.1-0.2
		c-0.2-0.5-0.4-0.9-0.6-1.4c-0.1-0.2-0.1-0.3,0.1-0.4c0.2-0.1,0.3,0,0.4,0.2c0.2,0.6,0.6,1.1,0.7,1.7c1.5-0.5,2.9-0.3,4.2,0.7
		c1.2,0.9,1.7,2.2,1.7,3.7c0,0.6-0.2,1.2-0.5,1.7c0,0,0,0,0,0c0.7,0.4,1.4,0.9,2,1.5C117.7,45.6,117.8,45.7,117.6,45.8z"/>
	<path class="st1" d="M107,49.9c-0.8,0.5-1.5,1-2.3,1.6c-0.1,0.1-0.2,0.2-0.3,0.2c1.2,0.9,2.5,1.6,4,2c0,0,0,0,0,0
		c0-1-0.1-2.1-0.2-3.1C108.1,49.8,107.5,49.5,107,49.9z"/>
	<path class="st1" d="M108.4,53.4c-0.1-0.9-0.2-1.9-0.2-2.8c0-0.4-0.1-0.7-0.4-0.9c-0.3-0.2-0.6-0.1-0.9,0.1
		c-0.8,0.5-1.6,1.1-2.3,1.6c-0.1,0.1-0.1,0.1-0.2,0.2c0.1,0,0.2-0.1,0.3-0.2c0.8-0.5,1.5-1.1,2.3-1.6c0.6-0.3,1.1-0.1,1.2,0.6
		c0.1,1,0.2,2.1,0.2,3.1C108.4,53.5,108.5,53.5,108.4,53.4z"/>
	<path class="st1" d="M116.2,50c-0.3-0.2-0.6-0.3-0.9-0.2c-0.3,0.2-0.4,0.5-0.4,0.9c-0.1,1-0.2,1.9-0.2,2.9c1.5-0.4,2.8-1,4-1.9l0,0
		c-0.4-0.2-0.8-0.5-1.1-0.7C117,50.6,116.6,50.3,116.2,50z"/>
	<path class="st1" d="M115.9,49.7c-0.4-0.2-0.9,0-1.1,0.5c-0.1,0.3,0,0.6-0.1,0.9c-0.1,0.7-0.1,1.4-0.2,2.2c0,0.1,0,0.2,0.1,0.3
		c0.1-1,0.1-1.9,0.2-2.9c0-0.3,0.1-0.7,0.4-0.9c0.3-0.2,0.6,0,0.9,0.2c0.4,0.3,0.9,0.6,1.3,0.9c0.4,0.3,0.7,0.5,1.1,0.7
		c0,0,0-0.1,0-0.1C117.7,50.9,116.8,50.2,115.9,49.7z"/>
	<path class="st2" d="M123.1,42.5c-0.8,0.3-1.7,0.5-2.5,0.8c-0.2,0.1-0.4,0.1-0.5,0.3c-0.2,0.3-0.2,0.7,0.1,1
		c0.6,0.6,1.3,1.2,1.9,1.8c0.1,0.1,0.3,0.2,0.4,0.4c0.6-1.4,1-2.9,1-4.4h0v0C123.4,42.5,123.2,42.5,123.1,42.5z"/>
	<path class="st2" d="M120.2,44.8c0.6,0.5,1.1,1,1.7,1.5c0.2,0.2,0.3,0.4,0.6,0.5c-0.1-0.2-0.3-0.3-0.4-0.4
		c-0.6-0.6-1.3-1.2-1.9-1.8c-0.3-0.3-0.3-0.6-0.1-1c0.1-0.2,0.3-0.2,0.5-0.3c0.8-0.3,1.7-0.5,2.5-0.8c0.1,0,0.3-0.1,0.4-0.2v0
		c-1,0.3-1.9,0.6-2.9,0.9C119.9,43.4,119.6,44.2,120.2,44.8z"/>
	<path class="st1" d="M100.7,46.5c0.7-0.6,1.4-1.2,2-1.9c0.5-0.5,0.4-1.1-0.3-1.3c-0.8-0.3-1.7-0.5-2.6-0.8c-0.1,0-0.3-0.1-0.3-0.2
		c0,0.4,0,0.8,0.1,1.2c0.2,1.1,0.4,2.2,0.9,3.3l0,0C100.5,46.7,100.6,46.6,100.7,46.5z"/>
	<path class="st1" d="M102.5,43.3c-0.3-0.1-0.6-0.2-0.9-0.3c-0.7-0.2-1.4-0.4-2.1-0.6c0.1,0.1,0.2,0.1,0.3,0.2
		c0.9,0.3,1.7,0.5,2.6,0.8c0.7,0.2,0.8,0.8,0.3,1.3c-0.7,0.6-1.3,1.3-2,1.9c-0.1,0.1-0.2,0.1-0.2,0.3c0.8-0.7,1.6-1.4,2.3-2.1
		C103.4,44.2,103.2,43.5,102.5,43.3z"/>
	<path class="st1" d="M119.2,33.3c-0.3,0.7-0.6,1.5-0.9,2.2c-0.1,0.2-0.1,0.3-0.2,0.5c-0.1,0.5,0.3,0.9,0.8,0.8
		c0.6-0.1,1.2-0.2,1.8-0.3c0.4-0.1,0.9-0.2,1.4-0.2c-0.7-1.4-1.6-2.5-2.8-3.5C119.3,33,119.2,33.1,119.2,33.3z"/>
	<path class="st1" d="M119,33.4c-0.3,0.8-0.6,1.6-0.9,2.4c-0.2,0.5,0.1,1.2,0.9,1.1c0.7-0.1,1.5-0.2,2.2-0.3c0.3,0,0.6,0,0.8-0.2
		c-0.5,0-0.9,0.1-1.4,0.2c-0.6,0.1-1.2,0.2-1.8,0.3c-0.5,0.1-0.8-0.3-0.8-0.8c0-0.2,0.1-0.4,0.2-0.5c0.3-0.7,0.6-1.5,0.9-2.2
		c0.1-0.1,0.1-0.3,0.1-0.4l0,0C119.2,33,119.1,33.2,119,33.4z"/>
	<path class="st1" d="M110.8,32.8c0.4,0.7,1,0.7,1.4,0c0.4-0.8,0.9-1.6,1.4-2.4c0-0.1,0.1-0.1,0.2-0.2c-0.3-0.1-0.7-0.1-1-0.2
		c-1.2-0.1-2.4-0.1-3.5,0.2c0,0,0,0,0,0c0.3,0.4,0.5,0.8,0.8,1.3C110.3,31.9,110.5,32.3,110.8,32.8z"/>
	<path class="st1" d="M112.3,32.9c0.1-0.2,0.3-0.5,0.4-0.7c0.4-0.7,0.8-1.3,1.1-2c-0.1,0.1-0.1,0.1-0.2,0.2
		c-0.4,0.8-0.9,1.6-1.4,2.4c-0.4,0.7-1,0.7-1.4,0c-0.3-0.4-0.5-0.9-0.8-1.3c-0.3-0.4-0.5-0.9-0.8-1.3c0.5,0.9,1,1.8,1.5,2.7
		C111.1,33.5,111.9,33.5,112.3,32.9z"/>
	<path class="st1" d="M104,36.8c0.6,0,1-0.4,0.8-1c-0.2-0.5-0.4-1.1-0.6-1.6c-0.1-0.3-0.2-0.6-0.4-0.9c0-0.1-0.1-0.2-0.1-0.4
		c-1.2,1-2.1,2.1-2.8,3.5c0,0,0,0,0,0c0.9,0.1,1.9,0.3,2.8,0.4C103.8,36.8,103.9,36.8,104,36.8z"/>
	<path class="st1" d="M101.1,36.4c0.9,0.1,1.8,0.3,2.7,0.4c0.7,0.1,1.2-0.3,1-1c0-0.2-0.1-0.4-0.2-0.6c-0.3-0.8-0.6-1.6-1-2.4
		c0,0.1,0,0.2,0.1,0.4c0.1,0.3,0.3,0.6,0.4,0.9c0.2,0.5,0.4,1.1,0.6,1.6c0.2,0.6-0.1,1.1-0.8,1c-0.1,0-0.2,0-0.3,0
		c-0.9-0.1-1.9-0.3-2.8-0.4C101,36.4,101,36.4,101.1,36.4z"/>
	<path class="st1" d="M115.6,44C115.6,44,115.6,44,115.6,44c0.3-0.5,0.5-1.1,0.5-1.7c0.1-1.5-0.5-2.8-1.7-3.7
		c-1.3-1-2.6-1.2-4.2-0.7c-0.1,0-0.2,0.1-0.4,0.1c0,0,0,0,0,0c0,0,0,0,0,0c-1.1,0.5-1.9,1.3-2.3,2.4c-0.5,1.3-0.4,2.6,0.2,3.8
		c0.1,0.1,0.2,0.3,0.2,0.4h0c0.3,0.3,0.5,0.6,0.8,0.8c1.5,1.1,3.1,1.3,4.7,0.6c0.7-0.3,1.3-0.9,1.8-1.5
		C115.4,44.3,115.5,44.1,115.6,44L115.6,44z M111.5,45.8c-2.1,0-3.8-1.7-3.8-3.8c0-2.1,1.7-3.8,3.8-3.8c2.1,0,3.8,1.7,3.8,3.8
		C115.3,44.1,113.6,45.8,111.5,45.8z"/>
	<path class="st3" d="M115.6,44L115.6,44c-0.1,0.1-0.2,0.3-0.2,0.4C115.5,44.3,115.6,44.2,115.6,44z"/>
	<path class="st3" d="M110.2,37.8c-0.2-0.1-0.3,0-0.4,0.1c0,0,0,0,0,0C110,37.9,110.1,37.8,110.2,37.8z"/>
	<path class="st3" d="M107.8,44.1c0,0.2,0.1,0.3,0.2,0.4l0,0h0C107.9,44.4,107.9,44.2,107.8,44.1z"/>
</g>
<g>
	<path class="st0" d="M102.8,105.3c-0.2-1.3-0.6-2.6-1.3-3.8c-0.3,0.2-0.6,0.1-0.8,0.2c-0.7,0.1-1.5,0.2-2.2,0.3
		c-0.8,0.1-1.1-0.6-0.9-1.1c0.3-0.8,0.6-1.6,0.9-2.4c0.1-0.2,0.2-0.4,0.2-0.6l0,0v0c-1.6-1.4-3.4-2.3-5.5-2.7
		c-0.3,0.7-0.7,1.3-1.1,2c-0.1,0.2-0.3,0.5-0.4,0.7c-0.3,0.7-1.2,0.6-1.5,0.1c-0.5-0.9-1.1-1.8-1.5-2.7c0,0,0,0,0,0
		c-0.8,0.1-1.5,0.4-2.3,0.7c-1.2,0.5-2.3,1.1-3.3,2c0.4,0.8,0.6,1.6,1,2.4c0.1,0.2,0.2,0.4,0.2,0.6c0.1,0.7-0.3,1.1-1,1
		c-0.9-0.1-1.8-0.3-2.7-0.4c-0.1,0-0.2,0-0.2-0.1c0,0,0,0,0,0c0,0,0,0.1-0.1,0.1c-1,1.9-1.4,3.8-1.3,5.9c0.7,0.2,1.4,0.4,2.1,0.6
		c0.3,0.1,0.6,0.2,0.9,0.3c0.7,0.2,0.8,0.9,0.3,1.4c-0.8,0.7-1.5,1.5-2.3,2.1v0c0.1,0.4,0.3,0.8,0.5,1.1c0.8,1.5,1.9,2.7,3.3,3.7
		c0-0.1,0.1-0.1,0.2-0.2c0.8-0.5,1.6-1,2.3-1.6c0.3-0.2,0.6-0.3,0.9-0.1c0.3,0.2,0.4,0.5,0.4,0.9c0.1,0.9,0.1,1.9,0.2,2.8
		c0,0.1,0,0.2-0.1,0.2c0,0,0,0,0,0c0.7,0.2,1.4,0.3,2.1,0.4c1.4,0.1,2.8,0,4.1-0.4c-0.1-0.1-0.1-0.2-0.1-0.3
		c0.1-0.7,0.1-1.4,0.2-2.2c0-0.3,0-0.6,0.1-0.9c0.1-0.5,0.7-0.7,1.1-0.5c0.9,0.5,1.8,1.2,2.7,1.8c0,0,0,0,0,0.1c0,0,0,0,0,0
		c1.7-1.3,3-2.9,3.9-4.8c-0.2-0.1-0.4-0.3-0.6-0.5c-0.6-0.5-1.1-1.1-1.7-1.5c-0.6-0.5-0.4-1.4,0.3-1.5c1-0.2,1.9-0.6,2.9-0.9
		C102.9,106.7,102.9,106,102.8,105.3z M97,110.9c-0.2,0.2-0.3,0.1-0.5-0.1c-0.6-0.5-1.2-1-1.8-1.4c-0.5,0.6-1,1.2-1.8,1.5
		c-1.7,0.7-3.3,0.6-4.7-0.6c-0.3-0.2-0.5-0.6-0.8-0.8c-0.5,0.3-1,0.6-1.4,0.8c-0.2,0.1-0.3,0.1-0.4-0.1c-0.1-0.2,0-0.3,0.1-0.4
		c0.5-0.3,1-0.6,1.5-0.8c-0.7-1.2-0.8-2.5-0.2-3.8c0.4-1.1,1.2-1.9,2.3-2.4c0,0,0,0,0,0c-0.1,0-0.1-0.1-0.1-0.2
		c-0.2-0.5-0.4-0.9-0.6-1.4c-0.1-0.2-0.1-0.3,0.1-0.4c0.2-0.1,0.3,0,0.4,0.2c0.2,0.6,0.6,1.1,0.7,1.7c1.5-0.5,2.9-0.3,4.2,0.7
		c1.2,0.9,1.7,2.2,1.7,3.7c0,0.6-0.2,1.2-0.5,1.7c0,0,0,0,0,0c0.7,0.4,1.4,0.9,2,1.5C97.1,110.7,97.2,110.8,97,110.9z"/>
	<path class="st1" d="M86.4,115c-0.8,0.5-1.5,1-2.3,1.6c-0.1,0.1-0.2,0.2-0.3,0.2c1.2,0.9,2.5,1.6,4,2c0,0,0,0,0,0
		c0-1-0.1-2.1-0.2-3.1C87.5,114.9,86.9,114.6,86.4,115z"/>
	<path class="st1" d="M87.8,118.5c-0.1-0.9-0.2-1.9-0.2-2.8c0-0.4-0.1-0.7-0.4-0.9c-0.3-0.2-0.6-0.1-0.9,0.1
		c-0.8,0.5-1.6,1.1-2.3,1.6c-0.1,0.1-0.1,0.1-0.2,0.2c0.1,0,0.2-0.1,0.3-0.2c0.8-0.5,1.5-1.1,2.3-1.6c0.6-0.3,1.1-0.1,1.2,0.6
		c0.1,1,0.2,2.1,0.2,3.1C87.8,118.6,87.8,118.6,87.8,118.5z"/>
	<path class="st1" d="M95.5,115.1c-0.3-0.2-0.6-0.3-0.9-0.2c-0.3,0.2-0.4,0.5-0.4,0.9c-0.1,1-0.2,1.9-0.2,2.9c1.5-0.4,2.8-1,4-1.9
		l0,0c-0.4-0.2-0.8-0.5-1.1-0.7C96.4,115.7,96,115.4,95.5,115.1z"/>
	<path class="st1" d="M95.3,114.8c-0.4-0.2-0.9,0-1.1,0.5c-0.1,0.3,0,0.6-0.1,0.9c-0.1,0.7-0.1,1.4-0.2,2.2c0,0.1,0,0.2,0.1,0.3
		c0.1-1,0.1-1.9,0.2-2.9c0-0.3,0.1-0.7,0.4-0.9c0.3-0.2,0.6,0,0.9,0.2c0.4,0.3,0.9,0.6,1.3,0.9c0.4,0.3,0.7,0.5,1.1,0.7
		c0,0,0-0.1,0-0.1C97.1,116,96.2,115.4,95.3,114.8z"/>
	<path class="st2" d="M102.5,107.6c-0.8,0.3-1.7,0.5-2.5,0.8c-0.2,0.1-0.4,0.1-0.5,0.3c-0.2,0.3-0.2,0.7,0.1,1
		c0.6,0.6,1.3,1.2,1.9,1.8c0.1,0.1,0.3,0.2,0.4,0.4c0.6-1.4,1-2.9,1-4.4h0v0C102.8,107.6,102.6,107.6,102.5,107.6z"/>
	<path class="st2" d="M99.6,109.9c0.6,0.5,1.1,1,1.7,1.5c0.2,0.2,0.3,0.4,0.6,0.5c-0.1-0.2-0.3-0.3-0.4-0.4
		c-0.6-0.6-1.3-1.2-1.9-1.8c-0.3-0.3-0.3-0.6-0.1-1c0.1-0.2,0.3-0.2,0.5-0.3c0.8-0.3,1.7-0.5,2.5-0.8c0.1,0,0.3-0.1,0.4-0.2v0
		c-1,0.3-1.9,0.6-2.9,0.9C99.3,108.5,99,109.3,99.6,109.9z"/>
	<path class="st1" d="M80.1,111.6c0.7-0.6,1.4-1.2,2-1.9c0.5-0.5,0.4-1.1-0.3-1.3c-0.8-0.3-1.7-0.5-2.6-0.8c-0.1,0-0.3-0.1-0.3-0.2
		c0,0.4,0,0.8,0.1,1.2c0.2,1.1,0.4,2.2,0.9,3.3l0,0C79.9,111.8,80,111.7,80.1,111.6z"/>
	<path class="st1" d="M81.9,108.4c-0.3-0.1-0.6-0.2-0.9-0.3c-0.7-0.2-1.4-0.4-2.1-0.6c0.1,0.1,0.2,0.1,0.3,0.2
		c0.9,0.3,1.7,0.5,2.6,0.8c0.7,0.2,0.8,0.8,0.3,1.3c-0.7,0.6-1.3,1.3-2,1.9c-0.1,0.1-0.2,0.1-0.2,0.3c0.8-0.7,1.6-1.4,2.3-2.1
		C82.7,109.3,82.6,108.6,81.9,108.4z"/>
	<path class="st1" d="M98.6,98.4c-0.3,0.7-0.6,1.5-0.9,2.2c-0.1,0.2-0.1,0.3-0.2,0.5c-0.1,0.5,0.3,0.9,0.8,0.8
		c0.6-0.1,1.2-0.2,1.8-0.3c0.4-0.1,0.9-0.2,1.4-0.2c-0.7-1.4-1.6-2.5-2.8-3.5C98.7,98.1,98.6,98.2,98.6,98.4z"/>
	<path class="st1" d="M98.4,98.5c-0.3,0.8-0.6,1.6-0.9,2.4c-0.2,0.5,0.1,1.2,0.9,1.1c0.7-0.1,1.5-0.2,2.2-0.3c0.3,0,0.6,0,0.8-0.2
		c-0.5,0-0.9,0.1-1.4,0.2c-0.6,0.1-1.2,0.2-1.8,0.3c-0.5,0.1-0.8-0.3-0.8-0.8c0-0.2,0.1-0.4,0.2-0.5c0.3-0.7,0.6-1.5,0.9-2.2
		c0.1-0.1,0.1-0.3,0.1-0.4l0,0C98.6,98.1,98.5,98.3,98.4,98.5z"/>
	<path class="st1" d="M90.2,97.9c0.4,0.7,1,0.7,1.4,0c0.4-0.8,0.9-1.6,1.4-2.4c0-0.1,0.1-0.1,0.2-0.2c-0.3-0.1-0.7-0.1-1-0.2
		C91,95,89.8,95,88.6,95.3c0,0,0,0,0,0c0.3,0.4,0.5,0.8,0.8,1.3C89.7,97,89.9,97.4,90.2,97.9z"/>
	<path class="st1" d="M91.7,98c0.1-0.2,0.3-0.5,0.4-0.7c0.4-0.7,0.8-1.3,1.1-2c-0.1,0.1-0.1,0.1-0.2,0.2c-0.4,0.8-0.9,1.6-1.4,2.4
		c-0.4,0.7-1,0.7-1.4,0c-0.3-0.4-0.5-0.9-0.8-1.3c-0.3-0.4-0.5-0.9-0.8-1.3c0.5,0.9,1,1.8,1.5,2.7C90.5,98.6,91.3,98.6,91.7,98z"/>
	<path class="st1" d="M83.4,101.9c0.6,0,1-0.4,0.8-1c-0.2-0.5-0.4-1.1-0.6-1.6c-0.1-0.3-0.2-0.6-0.4-0.9c0-0.1-0.1-0.2-0.1-0.4
		c-1.2,1-2.1,2.1-2.8,3.5c0,0,0,0,0,0c0.9,0.1,1.9,0.3,2.8,0.4C83.2,101.9,83.3,101.9,83.4,101.9z"/>
	<path class="st1" d="M80.5,101.5c0.9,0.1,1.8,0.3,2.7,0.4c0.7,0.1,1.2-0.3,1-1c0-0.2-0.1-0.4-0.2-0.6c-0.3-0.8-0.6-1.6-1-2.4
		c0,0.1,0,0.2,0.1,0.4c0.1,0.3,0.3,0.6,0.4,0.9c0.2,0.5,0.4,1.1,0.6,1.6c0.2,0.6-0.1,1.1-0.8,1c-0.1,0-0.2,0-0.3,0
		c-0.9-0.1-1.9-0.3-2.8-0.4C80.4,101.5,80.4,101.5,80.5,101.5z"/>
	<path class="st1" d="M95,109.1C95,109.1,95,109.1,95,109.1c0.3-0.5,0.5-1.1,0.5-1.7c0.1-1.5-0.5-2.8-1.7-3.7
		c-1.3-1-2.6-1.2-4.2-0.7c-0.1,0-0.2,0.1-0.4,0.1c0,0,0,0,0,0c0,0,0,0,0,0c-1.1,0.5-1.9,1.3-2.3,2.4c-0.5,1.3-0.4,2.6,0.2,3.8
		c0.1,0.1,0.2,0.3,0.2,0.4h0c0.3,0.3,0.5,0.6,0.8,0.8c1.5,1.1,3.1,1.3,4.7,0.6c0.7-0.3,1.3-0.9,1.8-1.5
		C94.8,109.4,94.9,109.2,95,109.1L95,109.1z M90.9,110.9c-2.1,0-3.8-1.7-3.8-3.8c0-2.1,1.7-3.8,3.8-3.8c2.1,0,3.8,1.7,3.8,3.8
		C94.7,109.2,93,110.9,90.9,110.9z"/>
	<path class="st3" d="M95,109.1L95,109.1c-0.1,0.1-0.2,0.3-0.2,0.4C94.9,109.4,95,109.3,95,109.1z"/>
	<path class="st3" d="M89.6,102.9c-0.2-0.1-0.3,0-0.4,0.1c0,0,0,0,0,0C89.4,103,89.5,102.9,89.6,102.9z"/>
	<path class="st3" d="M87.2,109.2c0,0.2,0.1,0.3,0.2,0.4l0,0h0C87.3,109.5,87.3,109.4,87.2,109.2z"/>
</g>
<g>
	<path class="st0" d="M181.6,72.4c-0.2-1.3-0.6-2.6-1.3-3.8c-0.3,0.2-0.6,0.1-0.8,0.2c-0.7,0.1-1.5,0.2-2.2,0.3
		c-0.8,0.1-1.1-0.6-0.9-1.1c0.3-0.8,0.6-1.6,0.9-2.4c0.1-0.2,0.2-0.4,0.2-0.6l0,0v0c-1.6-1.4-3.4-2.3-5.5-2.7
		c-0.3,0.7-0.7,1.3-1.1,2c-0.1,0.2-0.3,0.5-0.4,0.7c-0.3,0.7-1.2,0.6-1.5,0.1c-0.5-0.9-1.1-1.8-1.5-2.7c0,0,0,0,0,0
		c-0.8,0.1-1.5,0.4-2.3,0.7c-1.2,0.5-2.3,1.1-3.3,2c0.4,0.8,0.6,1.6,1,2.4c0.1,0.2,0.2,0.4,0.2,0.6c0.1,0.7-0.3,1.1-1,1
		c-0.9-0.1-1.8-0.3-2.7-0.4c-0.1,0-0.2,0-0.2-0.1c0,0,0,0,0,0c0,0,0,0.1-0.1,0.1c-1,1.9-1.4,3.8-1.3,5.9c0.7,0.2,1.4,0.4,2.1,0.6
		c0.3,0.1,0.6,0.2,0.9,0.3c0.7,0.2,0.8,0.9,0.3,1.4c-0.8,0.7-1.5,1.5-2.3,2.1v0c0.1,0.4,0.3,0.8,0.5,1.1c0.8,1.5,1.9,2.7,3.3,3.7
		c0-0.1,0.1-0.1,0.2-0.2c0.8-0.5,1.6-1,2.3-1.6c0.3-0.2,0.6-0.3,0.9-0.1c0.3,0.2,0.4,0.5,0.4,0.9c0.1,0.9,0.1,1.9,0.2,2.8
		c0,0.1,0,0.2-0.1,0.2c0,0,0,0,0,0c0.7,0.2,1.4,0.3,2.1,0.4c1.4,0.1,2.8,0,4.1-0.4c-0.1-0.1-0.1-0.2-0.1-0.3
		c0.1-0.7,0.1-1.4,0.2-2.2c0-0.3,0-0.6,0.1-0.9c0.1-0.5,0.7-0.7,1.1-0.5c0.9,0.5,1.8,1.2,2.7,1.8c0,0,0,0,0,0.1c0,0,0,0,0,0
		c1.7-1.3,3-2.9,3.9-4.8c-0.2-0.1-0.4-0.3-0.6-0.5c-0.6-0.5-1.1-1.1-1.7-1.5c-0.6-0.5-0.4-1.4,0.3-1.5c1-0.2,1.9-0.6,2.9-0.9
		C181.8,73.9,181.7,73.1,181.6,72.4z M175.9,78.1c-0.2,0.2-0.3,0.1-0.5-0.1c-0.6-0.5-1.2-1-1.8-1.4c-0.5,0.6-1,1.2-1.8,1.5
		c-1.7,0.7-3.3,0.6-4.7-0.6c-0.3-0.2-0.5-0.6-0.8-0.8c-0.5,0.3-1,0.6-1.4,0.8c-0.2,0.1-0.3,0.1-0.4-0.1c-0.1-0.2,0-0.3,0.1-0.4
		c0.5-0.3,1-0.6,1.5-0.8c-0.7-1.2-0.8-2.5-0.2-3.8c0.4-1.1,1.2-1.9,2.3-2.4c0,0,0,0,0,0c-0.1,0-0.1-0.1-0.1-0.2
		c-0.2-0.5-0.4-0.9-0.6-1.4c-0.1-0.2-0.1-0.3,0.1-0.4c0.2-0.1,0.3,0,0.4,0.2c0.2,0.6,0.6,1.1,0.7,1.7c1.5-0.5,2.9-0.3,4.2,0.7
		c1.2,0.9,1.7,2.2,1.7,3.7c0,0.6-0.2,1.2-0.5,1.7c0,0,0,0,0,0c0.7,0.4,1.4,0.9,2,1.5C175.9,77.8,176.1,77.9,175.9,78.1z"/>
	<path class="st1" d="M165.2,82.1c-0.8,0.5-1.5,1-2.3,1.6c-0.1,0.1-0.2,0.2-0.3,0.2c1.2,0.9,2.5,1.6,4,2c0,0,0,0,0,0
		c0-1-0.1-2.1-0.2-3.1C166.3,82,165.8,81.8,165.2,82.1z"/>
	<path class="st1" d="M166.7,85.6c-0.1-0.9-0.2-1.9-0.2-2.8c0-0.4-0.1-0.7-0.4-0.9c-0.3-0.2-0.6-0.1-0.9,0.1
		c-0.8,0.5-1.6,1.1-2.3,1.6c-0.1,0.1-0.1,0.1-0.2,0.2c0.1,0,0.2-0.1,0.3-0.2c0.8-0.5,1.5-1.1,2.3-1.6c0.6-0.3,1.1-0.1,1.2,0.6
		c0.1,1,0.2,2.1,0.2,3.1C166.7,85.8,166.7,85.7,166.7,85.6z"/>
	<path class="st1" d="M174.4,82.2c-0.3-0.2-0.6-0.3-0.9-0.2c-0.3,0.2-0.4,0.5-0.4,0.9c-0.1,1-0.2,1.9-0.2,2.9c1.5-0.4,2.8-1,4-1.9
		l0,0c-0.4-0.2-0.8-0.5-1.1-0.7C175.3,82.8,174.9,82.5,174.4,82.2z"/>
	<path class="st1" d="M174.1,81.9c-0.4-0.2-0.9,0-1.1,0.5c-0.1,0.3,0,0.6-0.1,0.9c-0.1,0.7-0.1,1.4-0.2,2.2c0,0.1,0,0.2,0.1,0.3
		c0.1-1,0.1-1.9,0.2-2.9c0-0.3,0.1-0.7,0.4-0.9c0.3-0.2,0.6,0,0.9,0.2c0.4,0.3,0.9,0.6,1.3,0.9c0.4,0.3,0.7,0.5,1.1,0.7
		c0,0,0-0.1,0-0.1C176,83.1,175.1,82.5,174.1,81.9z"/>
	<path class="st2" d="M181.4,74.8c-0.8,0.3-1.7,0.5-2.5,0.8c-0.2,0.1-0.4,0.1-0.5,0.3c-0.2,0.3-0.2,0.7,0.1,1
		c0.6,0.6,1.3,1.2,1.9,1.8c0.1,0.1,0.3,0.2,0.4,0.4c0.6-1.4,1-2.9,1-4.4h0v0C181.7,74.7,181.5,74.7,181.4,74.8z"/>
	<path class="st2" d="M178.5,77c0.6,0.5,1.1,1,1.7,1.5c0.2,0.2,0.3,0.4,0.6,0.5c-0.1-0.2-0.3-0.3-0.4-0.4c-0.6-0.6-1.3-1.2-1.9-1.8
		c-0.3-0.3-0.3-0.6-0.1-1c0.1-0.2,0.3-0.2,0.5-0.3c0.8-0.3,1.7-0.5,2.5-0.8c0.1,0,0.3-0.1,0.4-0.2v0c-1,0.3-1.9,0.6-2.9,0.9
		C178.1,75.7,177.9,76.5,178.5,77z"/>
	<path class="st1" d="M159,78.8c0.7-0.6,1.4-1.2,2-1.9c0.5-0.5,0.4-1.1-0.3-1.3c-0.8-0.3-1.7-0.5-2.6-0.8c-0.1,0-0.3-0.1-0.3-0.2
		c0,0.4,0,0.8,0.1,1.2c0.2,1.1,0.4,2.2,0.9,3.3l0,0C158.8,78.9,158.9,78.8,159,78.8z"/>
	<path class="st1" d="M160.8,75.5c-0.3-0.1-0.6-0.2-0.9-0.3c-0.7-0.2-1.4-0.4-2.1-0.6c0.1,0.1,0.2,0.1,0.3,0.2
		c0.9,0.3,1.7,0.5,2.6,0.8c0.7,0.2,0.8,0.8,0.3,1.3c-0.7,0.6-1.3,1.3-2,1.9c-0.1,0.1-0.2,0.1-0.2,0.3c0.8-0.7,1.6-1.4,2.3-2.1
		C161.6,76.4,161.4,75.7,160.8,75.5z"/>
	<path class="st1" d="M177.5,65.5c-0.3,0.7-0.6,1.5-0.9,2.2c-0.1,0.2-0.1,0.3-0.2,0.5c-0.1,0.5,0.3,0.9,0.8,0.8
		c0.6-0.1,1.2-0.2,1.8-0.3c0.4-0.1,0.9-0.2,1.4-0.2c-0.7-1.4-1.6-2.5-2.8-3.5C177.6,65.3,177.5,65.4,177.5,65.5z"/>
	<path class="st1" d="M177.3,65.7c-0.3,0.8-0.6,1.6-0.9,2.4c-0.2,0.5,0.1,1.2,0.9,1.1c0.7-0.1,1.5-0.2,2.2-0.3c0.3,0,0.6,0,0.8-0.2
		c-0.5,0-0.9,0.1-1.4,0.2c-0.6,0.1-1.2,0.2-1.8,0.3c-0.5,0.1-0.8-0.3-0.8-0.8c0-0.2,0.1-0.4,0.2-0.5c0.3-0.7,0.6-1.5,0.9-2.2
		c0.1-0.1,0.1-0.3,0.1-0.4l0,0C177.5,65.3,177.4,65.5,177.3,65.7z"/>
	<path class="st1" d="M169.1,65c0.4,0.7,1,0.7,1.4,0c0.4-0.8,0.9-1.6,1.4-2.4c0-0.1,0.1-0.1,0.2-0.2c-0.3-0.1-0.7-0.1-1-0.2
		c-1.2-0.1-2.4-0.1-3.5,0.2c0,0,0,0,0,0c0.3,0.4,0.5,0.8,0.8,1.3C168.6,64.1,168.8,64.6,169.1,65z"/>
	<path class="st1" d="M170.5,65.1c0.1-0.2,0.3-0.5,0.4-0.7c0.4-0.7,0.8-1.3,1.1-2c-0.1,0.1-0.1,0.1-0.2,0.2
		c-0.4,0.8-0.9,1.6-1.4,2.4c-0.4,0.7-1,0.7-1.4,0c-0.3-0.4-0.5-0.9-0.8-1.3c-0.3-0.4-0.5-0.9-0.8-1.3c0.5,0.9,1,1.8,1.5,2.7
		C169.3,65.7,170.2,65.8,170.5,65.1z"/>
	<path class="st1" d="M162.3,69c0.6,0,1-0.4,0.8-1c-0.2-0.5-0.4-1.1-0.6-1.6c-0.1-0.3-0.2-0.6-0.4-0.9c0-0.1-0.1-0.2-0.1-0.4
		c-1.2,1-2.1,2.1-2.8,3.5c0,0,0,0,0,0c0.9,0.1,1.9,0.3,2.8,0.4C162.1,69,162.2,69,162.3,69z"/>
	<path class="st1" d="M159.4,68.7c0.9,0.1,1.8,0.3,2.7,0.4c0.7,0.1,1.2-0.3,1-1c0-0.2-0.1-0.4-0.2-0.6c-0.3-0.8-0.6-1.6-1-2.4
		c0,0.1,0,0.2,0.1,0.4c0.1,0.3,0.3,0.6,0.4,0.9c0.2,0.5,0.4,1.1,0.6,1.6c0.2,0.6-0.1,1.1-0.8,1c-0.1,0-0.2,0-0.3,0
		c-0.9-0.1-1.9-0.3-2.8-0.4C159.2,68.7,159.3,68.7,159.4,68.7z"/>
	<path class="st1" d="M173.8,76.2C173.8,76.2,173.8,76.2,173.8,76.2c0.3-0.5,0.5-1.1,0.5-1.7c0.1-1.5-0.5-2.8-1.7-3.7
		c-1.3-1-2.6-1.2-4.2-0.7c-0.1,0-0.2,0.1-0.4,0.1c0,0,0,0,0,0c0,0,0,0,0,0c-1.1,0.5-1.9,1.3-2.3,2.4c-0.5,1.3-0.4,2.6,0.2,3.8
		c0.1,0.1,0.2,0.3,0.2,0.4h0c0.3,0.3,0.5,0.6,0.8,0.8c1.5,1.1,3.1,1.3,4.7,0.6c0.7-0.3,1.3-0.9,1.8-1.5
		C173.7,76.5,173.8,76.4,173.8,76.2L173.8,76.2z M169.8,78c-2.1,0-3.8-1.7-3.8-3.8c0-2.1,1.7-3.8,3.8-3.8c2.1,0,3.8,1.7,3.8,3.8
		C173.6,76.3,171.9,78,169.8,78z"/>
	<path class="st3" d="M173.8,76.2L173.8,76.2c-0.1,0.1-0.2,0.3-0.2,0.4C173.8,76.6,173.9,76.4,173.8,76.2z"/>
	<path class="st3" d="M168.5,70c-0.2-0.1-0.3,0-0.4,0.1c0,0,0,0,0,0C168.2,70.1,168.4,70.1,168.5,70z"/>
	<path class="st3" d="M166.1,76.4c0,0.2,0.1,0.3,0.2,0.4l0,0h0C166.2,76.6,166.1,76.5,166.1,76.4z"/>
</g>
<g>
	<path class="st0" d="M145.9,155.5c-0.2-1.3-0.6-2.6-1.3-3.8c-0.3,0.2-0.6,0.1-0.8,0.2c-0.7,0.1-1.5,0.2-2.2,0.3
		c-0.8,0.1-1.1-0.6-0.9-1.1c0.3-0.8,0.6-1.6,0.9-2.4c0.1-0.2,0.2-0.4,0.2-0.6l0,0v0c-1.6-1.4-3.4-2.3-5.5-2.7
		c-0.3,0.7-0.7,1.3-1.1,2c-0.1,0.2-0.3,0.5-0.4,0.7c-0.3,0.7-1.2,0.6-1.5,0.1c-0.5-0.9-1.1-1.8-1.5-2.7c0,0,0,0,0,0
		c-0.8,0.1-1.5,0.4-2.3,0.7c-1.2,0.5-2.3,1.1-3.3,2c0.4,0.8,0.6,1.6,1,2.4c0.1,0.2,0.2,0.4,0.2,0.6c0.1,0.7-0.3,1.1-1,1
		c-0.9-0.1-1.8-0.3-2.7-0.4c-0.1,0-0.2,0-0.2-0.1c0,0,0,0,0,0c0,0,0,0.1-0.1,0.1c-1,1.9-1.4,3.8-1.3,5.9c0.7,0.2,1.4,0.4,2.1,0.6
		c0.3,0.1,0.6,0.2,0.9,0.3c0.7,0.2,0.8,0.9,0.3,1.4c-0.8,0.7-1.5,1.5-2.3,2.1v0c0.1,0.4,0.3,0.8,0.5,1.1c0.8,1.5,1.9,2.7,3.3,3.7
		c0-0.1,0.1-0.1,0.2-0.2c0.8-0.5,1.6-1,2.3-1.6c0.3-0.2,0.6-0.3,0.9-0.1c0.3,0.2,0.4,0.5,0.4,0.9c0.1,0.9,0.1,1.9,0.2,2.8
		c0,0.1,0,0.2-0.1,0.2c0,0,0,0,0,0c0.7,0.2,1.4,0.3,2.1,0.4c1.4,0.1,2.8,0,4.1-0.4c-0.1-0.1-0.1-0.2-0.1-0.3
		c0.1-0.7,0.1-1.4,0.2-2.2c0-0.3,0-0.6,0.1-0.9c0.1-0.5,0.7-0.7,1.1-0.5c0.9,0.5,1.8,1.2,2.7,1.8c0,0,0,0,0,0.1c0,0,0,0,0,0
		c1.7-1.3,3-2.9,3.9-4.8c-0.2-0.1-0.4-0.3-0.6-0.5c-0.6-0.5-1.1-1.1-1.7-1.5c-0.6-0.5-0.4-1.4,0.3-1.5c1-0.2,1.9-0.6,2.9-0.9
		C146.1,157,146.1,156.3,145.9,155.5z M140.2,161.2c-0.2,0.2-0.3,0.1-0.5-0.1c-0.6-0.5-1.2-1-1.8-1.4c-0.5,0.6-1,1.2-1.8,1.5
		c-1.7,0.7-3.3,0.6-4.7-0.6c-0.3-0.2-0.5-0.6-0.8-0.8c-0.5,0.3-1,0.6-1.4,0.8c-0.2,0.1-0.3,0.1-0.4-0.1c-0.1-0.2,0-0.3,0.1-0.4
		c0.5-0.3,1-0.6,1.5-0.8c-0.7-1.2-0.8-2.5-0.2-3.8c0.4-1.1,1.2-1.9,2.3-2.4c0,0,0,0,0,0c-0.1,0-0.1-0.1-0.1-0.2
		c-0.2-0.5-0.4-0.9-0.6-1.4c-0.1-0.2-0.1-0.3,0.1-0.4c0.2-0.1,0.3,0,0.4,0.2c0.2,0.6,0.6,1.1,0.7,1.7c1.5-0.5,2.9-0.3,4.2,0.7
		c1.2,0.9,1.7,2.2,1.7,3.7c0,0.6-0.2,1.2-0.5,1.7c0,0,0,0,0,0c0.7,0.4,1.4,0.9,2,1.5C140.3,160.9,140.4,161.1,140.2,161.2z"/>
	<path class="st1" d="M129.6,165.2c-0.8,0.5-1.5,1-2.3,1.6c-0.1,0.1-0.2,0.2-0.3,0.2c1.2,0.9,2.5,1.6,4,2c0,0,0,0,0,0
		c0-1-0.1-2.1-0.2-3.1C130.7,165.2,130.1,164.9,129.6,165.2z"/>
	<path class="st1" d="M131,168.7c-0.1-0.9-0.2-1.9-0.2-2.8c0-0.4-0.1-0.7-0.4-0.9c-0.3-0.2-0.6-0.1-0.9,0.1
		c-0.8,0.5-1.6,1.1-2.3,1.6c-0.1,0.1-0.1,0.1-0.2,0.2c0.1,0,0.2-0.1,0.3-0.2c0.8-0.5,1.5-1.1,2.3-1.6c0.6-0.3,1.1-0.1,1.2,0.6
		c0.1,1,0.2,2.1,0.2,3.1C131,168.9,131,168.8,131,168.7z"/>
	<path class="st1" d="M138.7,165.3c-0.3-0.2-0.6-0.3-0.9-0.2c-0.3,0.2-0.4,0.5-0.4,0.9c-0.1,1-0.2,1.9-0.2,2.9c1.5-0.4,2.8-1,4-1.9
		l0,0c-0.4-0.2-0.8-0.5-1.1-0.7C139.6,165.9,139.2,165.6,138.7,165.3z"/>
	<path class="st1" d="M138.5,165.1c-0.4-0.2-0.9,0-1.1,0.5c-0.1,0.3,0,0.6-0.1,0.9c-0.1,0.7-0.1,1.4-0.2,2.2c0,0.1,0,0.2,0.1,0.3
		c0.1-1,0.1-1.9,0.2-2.9c0-0.3,0.1-0.7,0.4-0.9c0.3-0.2,0.6,0,0.9,0.2c0.4,0.3,0.9,0.6,1.3,0.9c0.4,0.3,0.7,0.5,1.1,0.7
		c0,0,0-0.1,0-0.1C140.3,166.3,139.4,165.6,138.5,165.1z"/>
	<path class="st2" d="M145.7,157.9c-0.8,0.3-1.7,0.5-2.5,0.8c-0.2,0.1-0.4,0.1-0.5,0.3c-0.2,0.3-0.2,0.7,0.1,1
		c0.6,0.6,1.3,1.2,1.9,1.8c0.1,0.1,0.3,0.2,0.4,0.4c0.6-1.4,1-2.9,1-4.4h0v0C146,157.8,145.8,157.9,145.7,157.9z"/>
	<path class="st2" d="M142.8,160.1c0.6,0.5,1.1,1,1.7,1.5c0.2,0.2,0.3,0.4,0.6,0.5c-0.1-0.2-0.3-0.3-0.4-0.4
		c-0.6-0.6-1.3-1.2-1.9-1.8c-0.3-0.3-0.3-0.6-0.1-1c0.1-0.2,0.3-0.2,0.5-0.3c0.8-0.3,1.7-0.5,2.5-0.8c0.1,0,0.3-0.1,0.4-0.2v0
		c-1,0.3-1.9,0.6-2.9,0.9C142.4,158.8,142.2,159.6,142.8,160.1z"/>
	<path class="st1" d="M123.3,161.9c0.7-0.6,1.4-1.2,2-1.9c0.5-0.5,0.4-1.1-0.3-1.3c-0.8-0.3-1.7-0.5-2.6-0.8c-0.1,0-0.3-0.1-0.3-0.2
		c0,0.4,0,0.8,0.1,1.2c0.2,1.1,0.4,2.2,0.9,3.3l0,0C123.1,162,123.2,162,123.3,161.9z"/>
	<path class="st1" d="M125.1,158.6c-0.3-0.1-0.6-0.2-0.9-0.3c-0.7-0.2-1.4-0.4-2.1-0.6c0.1,0.1,0.2,0.1,0.3,0.2
		c0.9,0.3,1.7,0.5,2.6,0.8c0.7,0.2,0.8,0.8,0.3,1.3c-0.7,0.6-1.3,1.3-2,1.9c-0.1,0.1-0.2,0.1-0.2,0.3c0.8-0.7,1.6-1.4,2.3-2.1
		C125.9,159.5,125.8,158.9,125.1,158.6z"/>
	<path class="st1" d="M141.8,148.6c-0.3,0.7-0.6,1.5-0.9,2.2c-0.1,0.2-0.1,0.3-0.2,0.5c-0.1,0.5,0.3,0.9,0.8,0.8
		c0.6-0.1,1.2-0.2,1.8-0.3c0.4-0.1,0.9-0.2,1.4-0.2c-0.7-1.4-1.6-2.5-2.8-3.5C141.9,148.4,141.8,148.5,141.8,148.6z"/>
	<path class="st1" d="M141.6,148.8c-0.3,0.8-0.6,1.6-0.9,2.4c-0.2,0.5,0.1,1.2,0.9,1.1c0.7-0.1,1.5-0.2,2.2-0.3c0.3,0,0.6,0,0.8-0.2
		c-0.5,0-0.9,0.1-1.4,0.2c-0.6,0.1-1.2,0.2-1.8,0.3c-0.5,0.1-0.8-0.3-0.8-0.8c0-0.2,0.1-0.4,0.2-0.5c0.3-0.7,0.6-1.5,0.9-2.2
		c0.1-0.1,0.1-0.3,0.1-0.4l0,0C141.8,148.4,141.7,148.6,141.6,148.8z"/>
	<path class="st1" d="M133.4,148.1c0.4,0.7,1,0.7,1.4,0c0.4-0.8,0.9-1.6,1.4-2.4c0-0.1,0.1-0.1,0.2-0.2c-0.3-0.1-0.7-0.1-1-0.2
		c-1.2-0.1-2.4-0.1-3.5,0.2c0,0,0,0,0,0c0.3,0.4,0.5,0.8,0.8,1.3C132.9,147.3,133.1,147.7,133.4,148.1z"/>
	<path class="st1" d="M134.9,148.2c0.1-0.2,0.3-0.5,0.4-0.7c0.4-0.7,0.8-1.3,1.1-2c-0.1,0.1-0.1,0.1-0.2,0.2
		c-0.4,0.8-0.9,1.6-1.4,2.4c-0.4,0.7-1,0.7-1.4,0c-0.3-0.4-0.5-0.9-0.8-1.3c-0.3-0.4-0.5-0.9-0.8-1.3c0.5,0.9,1,1.8,1.5,2.7
		C133.7,148.8,134.5,148.9,134.9,148.2z"/>
	<path class="st1" d="M126.6,152.2c0.6,0,1-0.4,0.8-1c-0.2-0.5-0.4-1.1-0.6-1.6c-0.1-0.3-0.2-0.6-0.4-0.9c0-0.1-0.1-0.2-0.1-0.4
		c-1.2,1-2.1,2.1-2.8,3.5c0,0,0,0,0,0c0.9,0.1,1.9,0.3,2.8,0.4C126.4,152.1,126.5,152.1,126.6,152.2z"/>
	<path class="st1" d="M123.7,151.8c0.9,0.1,1.8,0.3,2.7,0.4c0.7,0.1,1.2-0.3,1-1c0-0.2-0.1-0.4-0.2-0.6c-0.3-0.8-0.6-1.6-1-2.4
		c0,0.1,0,0.2,0.1,0.4c0.1,0.3,0.3,0.6,0.4,0.9c0.2,0.5,0.4,1.1,0.6,1.6c0.2,0.6-0.1,1.1-0.8,1c-0.1,0-0.2,0-0.3,0
		c-0.9-0.1-1.9-0.3-2.8-0.4C123.6,151.8,123.6,151.8,123.7,151.8z"/>
	<path class="st1" d="M138.2,159.4C138.2,159.4,138.2,159.4,138.2,159.4c0.3-0.5,0.5-1.1,0.5-1.7c0.1-1.5-0.5-2.8-1.7-3.7
		c-1.3-1-2.6-1.2-4.2-0.7c-0.1,0-0.2,0.1-0.4,0.1c0,0,0,0,0,0c0,0,0,0,0,0c-1.1,0.5-1.9,1.3-2.3,2.4c-0.5,1.3-0.4,2.6,0.2,3.8
		c0.1,0.1,0.2,0.3,0.2,0.4h0c0.3,0.3,0.5,0.6,0.8,0.8c1.5,1.1,3.1,1.3,4.7,0.6c0.7-0.3,1.3-0.9,1.8-1.5
		C138,159.6,138.1,159.5,138.2,159.4L138.2,159.4z M134.1,161.1c-2.1,0-3.8-1.7-3.8-3.8c0-2.1,1.7-3.8,3.8-3.8
		c2.1,0,3.8,1.7,3.8,3.8C137.9,159.5,136.2,161.1,134.1,161.1z"/>
	<path class="st3" d="M138.2,159.4L138.2,159.4c-0.1,0.1-0.2,0.3-0.2,0.4C138.1,159.7,138.2,159.6,138.2,159.4z"/>
	<path class="st3" d="M132.8,153.2c-0.2-0.1-0.3,0-0.4,0.1c0,0,0,0,0,0C132.6,153.2,132.7,153.2,132.8,153.2z"/>
	<path class="st3" d="M130.4,159.5c0,0.2,0.1,0.3,0.2,0.4l0,0h0C130.5,159.8,130.5,159.6,130.4,159.5z"/>
</g>
<g>
	<path class="st0" d="M118.2,212.8c-0.2-1.3-0.6-2.6-1.3-3.8c-0.3,0.2-0.6,0.1-0.8,0.2c-0.7,0.1-1.5,0.2-2.2,0.3
		c-0.8,0.1-1.1-0.6-0.9-1.1c0.3-0.8,0.6-1.6,0.9-2.4c0.1-0.2,0.2-0.4,0.2-0.6l0,0v0c-1.6-1.4-3.4-2.3-5.5-2.7
		c-0.3,0.7-0.7,1.3-1.1,2c-0.1,0.2-0.3,0.5-0.4,0.7c-0.3,0.7-1.2,0.6-1.5,0.1c-0.5-0.9-1.1-1.8-1.5-2.7c0,0,0,0,0,0
		c-0.8,0.1-1.5,0.4-2.3,0.7c-1.2,0.5-2.3,1.1-3.3,2c0.4,0.8,0.6,1.6,1,2.4c0.1,0.2,0.2,0.4,0.2,0.6c0.1,0.7-0.3,1.1-1,1
		c-0.9-0.1-1.8-0.3-2.7-0.4c-0.1,0-0.2,0-0.2-0.1c0,0,0,0,0,0c0,0,0,0.1-0.1,0.1c-1,1.9-1.4,3.8-1.3,5.9c0.7,0.2,1.4,0.4,2.1,0.6
		c0.3,0.1,0.6,0.2,0.9,0.3c0.7,0.2,0.8,0.9,0.3,1.4c-0.8,0.7-1.5,1.5-2.3,2.1v0c0.1,0.4,0.3,0.8,0.5,1.1c0.8,1.5,1.9,2.7,3.3,3.7
		c0-0.1,0.1-0.1,0.2-0.2c0.8-0.5,1.6-1,2.3-1.6c0.3-0.2,0.6-0.3,0.9-0.1c0.3,0.2,0.4,0.5,0.4,0.9c0.1,0.9,0.1,1.9,0.2,2.8
		c0,0.1,0,0.2-0.1,0.2c0,0,0,0,0,0c0.7,0.2,1.4,0.3,2.1,0.4c1.4,0.1,2.8,0,4.1-0.4c-0.1-0.1-0.1-0.2-0.1-0.3
		c0.1-0.7,0.1-1.4,0.2-2.2c0-0.3,0-0.6,0.1-0.9c0.1-0.5,0.7-0.7,1.1-0.5c0.9,0.5,1.8,1.2,2.7,1.8c0,0,0,0,0,0.1c0,0,0,0,0,0
		c1.7-1.3,3-2.9,3.9-4.8c-0.2-0.1-0.4-0.3-0.6-0.5c-0.6-0.5-1.1-1.1-1.7-1.5c-0.6-0.5-0.4-1.4,0.3-1.5c1-0.2,1.9-0.6,2.9-0.9
		C118.4,214.2,118.3,213.5,118.2,212.8z M112.5,218.5c-0.2,0.2-0.3,0.1-0.5-0.1c-0.6-0.5-1.2-1-1.8-1.4c-0.5,0.6-1,1.2-1.8,1.5
		c-1.7,0.7-3.3,0.6-4.7-0.6c-0.3-0.2-0.5-0.6-0.8-0.8c-0.5,0.3-1,0.6-1.4,0.8c-0.2,0.1-0.3,0.1-0.4-0.1c-0.1-0.2,0-0.3,0.1-0.4
		c0.5-0.3,1-0.6,1.5-0.8c-0.7-1.2-0.8-2.5-0.2-3.8c0.4-1.1,1.2-1.9,2.3-2.4c0,0,0,0,0,0c-0.1,0-0.1-0.1-0.1-0.2
		c-0.2-0.5-0.4-0.9-0.6-1.4c-0.1-0.2-0.1-0.3,0.1-0.4c0.2-0.1,0.3,0,0.4,0.2c0.2,0.6,0.6,1.1,0.7,1.7c1.5-0.5,2.9-0.3,4.2,0.7
		c1.2,0.9,1.7,2.2,1.7,3.7c0,0.6-0.2,1.2-0.5,1.7c0,0,0,0,0,0c0.7,0.4,1.4,0.9,2,1.5C112.5,218.2,112.6,218.3,112.5,218.5z"/>
	<path class="st1" d="M101.8,222.5c-0.8,0.5-1.5,1-2.3,1.6c-0.1,0.1-0.2,0.2-0.3,0.2c1.2,0.9,2.5,1.6,4,2c0,0,0,0,0,0
		c0-1-0.1-2.1-0.2-3.1C102.9,222.4,102.4,222.1,101.8,222.5z"/>
	<path class="st1" d="M103.3,226c-0.1-0.9-0.2-1.9-0.2-2.8c0-0.4-0.1-0.7-0.4-0.9c-0.3-0.2-0.6-0.1-0.9,0.1
		c-0.8,0.5-1.6,1.1-2.3,1.6c-0.1,0.1-0.1,0.1-0.2,0.2c0.1,0,0.2-0.1,0.3-0.2c0.8-0.5,1.5-1.1,2.3-1.6c0.6-0.3,1.1-0.1,1.2,0.6
		c0.1,1,0.2,2.1,0.2,3.1C103.3,226.1,103.3,226.1,103.3,226z"/>
	<path class="st1" d="M111,222.6c-0.3-0.2-0.6-0.3-0.9-0.2c-0.3,0.2-0.4,0.5-0.4,0.9c-0.1,1-0.2,1.9-0.2,2.9c1.5-0.4,2.8-1,4-1.9
		l0,0c-0.4-0.2-0.8-0.5-1.1-0.7C111.9,223.2,111.4,222.9,111,222.6z"/>
	<path class="st1" d="M110.7,222.3c-0.4-0.2-0.9,0-1.1,0.5c-0.1,0.3,0,0.6-0.1,0.9c-0.1,0.7-0.1,1.4-0.2,2.2c0,0.1,0,0.2,0.1,0.3
		c0.1-1,0.1-1.9,0.2-2.9c0-0.3,0.1-0.7,0.4-0.9c0.3-0.2,0.6,0,0.9,0.2c0.4,0.3,0.9,0.6,1.3,0.9c0.4,0.3,0.7,0.5,1.1,0.7
		c0,0,0-0.1,0-0.1C112.5,223.5,111.7,222.9,110.7,222.3z"/>
	<path class="st2" d="M117.9,215.2c-0.8,0.3-1.7,0.5-2.5,0.8c-0.2,0.1-0.4,0.1-0.5,0.3c-0.2,0.3-0.2,0.7,0.1,1
		c0.6,0.6,1.3,1.2,1.9,1.8c0.1,0.1,0.3,0.2,0.4,0.4c0.6-1.4,1-2.9,1-4.4h0v0C118.2,215.1,118.1,215.1,117.9,215.2z"/>
	<path class="st2" d="M115,217.4c0.6,0.5,1.1,1,1.7,1.5c0.2,0.2,0.3,0.4,0.6,0.5c-0.1-0.2-0.3-0.3-0.4-0.4c-0.6-0.6-1.3-1.2-1.9-1.8
		c-0.3-0.3-0.3-0.6-0.1-1c0.1-0.2,0.3-0.2,0.5-0.3c0.8-0.3,1.7-0.5,2.5-0.8c0.1,0,0.3-0.1,0.4-0.2v0c-1,0.3-1.9,0.6-2.9,0.9
		C114.7,216,114.4,216.9,115,217.4z"/>
	<path class="st1" d="M95.5,219.2c0.7-0.6,1.4-1.2,2-1.9c0.5-0.5,0.4-1.1-0.3-1.3c-0.8-0.3-1.7-0.5-2.6-0.8c-0.1,0-0.3-0.1-0.3-0.2
		c0,0.4,0,0.8,0.1,1.2c0.2,1.1,0.4,2.2,0.9,3.3l0,0C95.4,219.3,95.5,219.2,95.5,219.2z"/>
	<path class="st1" d="M97.4,215.9c-0.3-0.1-0.6-0.2-0.9-0.3c-0.7-0.2-1.4-0.4-2.1-0.6c0.1,0.1,0.2,0.1,0.3,0.2
		c0.9,0.3,1.7,0.5,2.6,0.8c0.7,0.2,0.8,0.8,0.3,1.3c-0.7,0.6-1.3,1.3-2,1.9c-0.1,0.1-0.2,0.1-0.2,0.3c0.8-0.7,1.6-1.4,2.3-2.1
		C98.2,216.8,98,216.1,97.4,215.9z"/>
	<path class="st1" d="M114,205.9c-0.3,0.7-0.6,1.5-0.9,2.2c-0.1,0.2-0.1,0.3-0.2,0.5c-0.1,0.5,0.3,0.9,0.8,0.8
		c0.6-0.1,1.2-0.2,1.8-0.3c0.4-0.1,0.9-0.2,1.4-0.2c-0.7-1.4-1.6-2.5-2.8-3.5C114.2,205.6,114.1,205.8,114,205.9z"/>
	<path class="st1" d="M113.9,206c-0.3,0.8-0.6,1.6-0.9,2.4c-0.2,0.5,0.1,1.2,0.9,1.1c0.7-0.1,1.5-0.2,2.2-0.3c0.3,0,0.6,0,0.8-0.2
		c-0.5,0-0.9,0.1-1.4,0.2c-0.6,0.1-1.2,0.2-1.8,0.3c-0.5,0.1-0.8-0.3-0.8-0.8c0-0.2,0.1-0.4,0.2-0.5c0.3-0.7,0.6-1.5,0.9-2.2
		c0.1-0.1,0.1-0.3,0.1-0.4l0,0C114,205.7,114,205.9,113.9,206z"/>
	<path class="st1" d="M105.6,205.4c0.4,0.7,1,0.7,1.4,0c0.4-0.8,0.9-1.6,1.4-2.4c0-0.1,0.1-0.1,0.2-0.2c-0.3-0.1-0.7-0.1-1-0.2
		c-1.2-0.1-2.4-0.1-3.5,0.2c0,0,0,0,0,0c0.3,0.4,0.5,0.8,0.8,1.3C105.1,204.5,105.4,205,105.6,205.4z"/>
	<path class="st1" d="M107.1,205.5c0.1-0.2,0.3-0.5,0.4-0.7c0.4-0.7,0.8-1.3,1.1-2c-0.1,0.1-0.1,0.1-0.2,0.2
		c-0.4,0.8-0.9,1.6-1.4,2.4c-0.4,0.7-1,0.7-1.4,0c-0.3-0.4-0.5-0.9-0.8-1.3c-0.3-0.4-0.5-0.9-0.8-1.3c0.5,0.9,1,1.8,1.5,2.7
		C105.9,206.1,106.8,206.2,107.1,205.5z"/>
	<path class="st1" d="M98.8,209.4c0.6,0,1-0.4,0.8-1c-0.2-0.5-0.4-1.1-0.6-1.6c-0.1-0.3-0.2-0.6-0.4-0.9c0-0.1-0.1-0.2-0.1-0.4
		c-1.2,1-2.1,2.1-2.8,3.5c0,0,0,0,0,0c0.9,0.1,1.9,0.3,2.8,0.4C98.7,209.4,98.8,209.4,98.8,209.4z"/>
	<path class="st1" d="M96,209.1c0.9,0.1,1.8,0.3,2.7,0.4c0.7,0.1,1.2-0.3,1-1c0-0.2-0.1-0.4-0.2-0.6c-0.3-0.8-0.6-1.6-1-2.4
		c0,0.1,0,0.2,0.1,0.4c0.1,0.3,0.3,0.6,0.4,0.9c0.2,0.5,0.4,1.1,0.6,1.6c0.2,0.6-0.1,1.1-0.8,1c-0.1,0-0.2,0-0.3,0
		c-0.9-0.1-1.9-0.3-2.8-0.4C95.8,209,95.9,209.1,96,209.1z"/>
	<path class="st1" d="M110.4,216.6C110.4,216.6,110.4,216.6,110.4,216.6c0.3-0.5,0.5-1.1,0.5-1.7c0.1-1.5-0.5-2.8-1.7-3.7
		c-1.3-1-2.6-1.2-4.2-0.7c-0.1,0-0.2,0.1-0.4,0.1c0,0,0,0,0,0c0,0,0,0,0,0c-1.1,0.5-1.9,1.3-2.3,2.4c-0.5,1.3-0.4,2.6,0.2,3.8
		c0.1,0.1,0.2,0.3,0.2,0.4h0c0.3,0.3,0.5,0.6,0.8,0.8c1.5,1.1,3.1,1.3,4.7,0.6c0.7-0.3,1.3-0.9,1.8-1.5
		C110.3,216.9,110.3,216.8,110.4,216.6L110.4,216.6z M106.3,218.4c-2.1,0-3.8-1.7-3.8-3.8c0-2.1,1.7-3.8,3.8-3.8
		c2.1,0,3.8,1.7,3.8,3.8C110.1,216.7,108.4,218.4,106.3,218.4z"/>
	<path class="st3" d="M110.4,216.6L110.4,216.6c-0.1,0.1-0.2,0.3-0.2,0.4C110.3,216.9,110.4,216.8,110.4,216.6z"/>
	<path class="st3" d="M105.1,210.4c-0.2-0.1-0.3,0-0.4,0.1c0,0,0,0,0,0C104.8,210.5,104.9,210.5,105.1,210.4z"/>
	<path class="st3" d="M102.6,216.7c0,0.2,0.1,0.3,0.2,0.4l0,0h0C102.8,217,102.7,216.9,102.6,216.7z"/>
</g>
<g>
	<path class="st0" d="M53.5,125.8c-0.2-1.3-0.6-2.6-1.3-3.8c-0.3,0.2-0.6,0.1-0.8,0.2c-0.7,0.1-1.5,0.2-2.2,0.3
		c-0.8,0.1-1.1-0.6-0.9-1.1c0.3-0.8,0.6-1.6,0.9-2.4c0.1-0.2,0.2-0.4,0.2-0.6l0,0v0c-1.6-1.4-3.4-2.3-5.5-2.7
		c-0.3,0.7-0.7,1.3-1.1,2c-0.1,0.2-0.3,0.5-0.4,0.7c-0.3,0.7-1.2,0.6-1.5,0.1c-0.5-0.9-1.1-1.8-1.5-2.7c0,0,0,0,0,0
		c-0.8,0.1-1.5,0.4-2.3,0.7c-1.2,0.5-2.3,1.1-3.3,2c0.4,0.8,0.6,1.6,1,2.4c0.1,0.2,0.2,0.4,0.2,0.6c0.1,0.7-0.3,1.1-1,1
		c-0.9-0.1-1.8-0.3-2.7-0.4c-0.1,0-0.2,0-0.2-0.1c0,0,0,0,0,0c0,0,0,0.1-0.1,0.1c-1,1.9-1.4,3.8-1.3,5.9c0.7,0.2,1.4,0.4,2.1,0.6
		c0.3,0.1,0.6,0.2,0.9,0.3c0.7,0.2,0.8,0.9,0.3,1.4c-0.8,0.7-1.5,1.5-2.3,2.1v0c0.1,0.4,0.3,0.8,0.5,1.1c0.8,1.5,1.9,2.7,3.3,3.7
		c0-0.1,0.1-0.1,0.2-0.2c0.8-0.5,1.6-1,2.3-1.6c0.3-0.2,0.6-0.3,0.9-0.1c0.3,0.2,0.4,0.5,0.4,0.9c0.1,0.9,0.1,1.9,0.2,2.8
		c0,0.1,0,0.2-0.1,0.2c0,0,0,0,0,0c0.7,0.2,1.4,0.3,2.1,0.4c1.4,0.1,2.8,0,4.1-0.4c-0.1-0.1-0.1-0.2-0.1-0.3
		c0.1-0.7,0.1-1.4,0.2-2.2c0-0.3,0-0.6,0.1-0.9c0.1-0.5,0.7-0.7,1.1-0.5c0.9,0.5,1.8,1.2,2.7,1.8c0,0,0,0,0,0.1c0,0,0,0,0,0
		c1.7-1.3,3-2.9,3.9-4.8c-0.2-0.1-0.4-0.3-0.6-0.5c-0.6-0.5-1.1-1.1-1.7-1.5c-0.6-0.5-0.4-1.4,0.3-1.5c1-0.2,1.9-0.6,2.9-0.9
		C53.6,127.3,53.6,126.6,53.5,125.8z M47.8,131.5c-0.2,0.2-0.3,0.1-0.5-0.1c-0.6-0.5-1.2-1-1.8-1.4c-0.5,0.6-1,1.2-1.8,1.5
		c-1.7,0.7-3.3,0.6-4.7-0.6c-0.3-0.2-0.5-0.6-0.8-0.8c-0.5,0.3-1,0.6-1.4,0.8c-0.2,0.1-0.3,0.1-0.4-0.1c-0.1-0.2,0-0.3,0.1-0.4
		c0.5-0.3,1-0.6,1.5-0.8c-0.7-1.2-0.8-2.5-0.2-3.8c0.4-1.1,1.2-1.9,2.3-2.4c0,0,0,0,0,0c-0.1,0-0.1-0.1-0.1-0.2
		c-0.2-0.5-0.4-0.9-0.6-1.4c-0.1-0.2-0.1-0.3,0.1-0.4c0.2-0.1,0.3,0,0.4,0.2c0.2,0.6,0.6,1.1,0.7,1.7c1.5-0.5,2.9-0.3,4.2,0.7
		c1.2,0.9,1.7,2.2,1.7,3.7c0,0.6-0.2,1.2-0.5,1.7c0,0,0,0,0,0c0.7,0.4,1.4,0.9,2,1.5C47.8,131.2,47.9,131.4,47.8,131.5z"/>
	<path class="st1" d="M37.1,135.5c-0.8,0.5-1.5,1-2.3,1.6c-0.1,0.1-0.2,0.2-0.3,0.2c1.2,0.9,2.5,1.6,4,2c0,0,0,0,0,0
		c0-1-0.1-2.1-0.2-3.1C38.2,135.5,37.6,135.2,37.1,135.5z"/>
	<path class="st1" d="M38.6,139c-0.1-0.9-0.2-1.9-0.2-2.8c0-0.4-0.1-0.7-0.4-0.9c-0.3-0.2-0.6-0.1-0.9,0.1c-0.8,0.5-1.6,1.1-2.3,1.6
		c-0.1,0.1-0.1,0.1-0.2,0.2c0.1,0,0.2-0.1,0.3-0.2c0.8-0.5,1.5-1.1,2.3-1.6c0.6-0.3,1.1-0.1,1.2,0.6c0.1,1,0.2,2.1,0.2,3.1
		C38.6,139.2,38.6,139.1,38.6,139z"/>
	<path class="st1" d="M46.3,135.6c-0.3-0.2-0.6-0.3-0.9-0.2c-0.3,0.2-0.4,0.5-0.4,0.9c-0.1,1-0.2,1.9-0.2,2.9c1.5-0.4,2.8-1,4-1.9
		l0,0c-0.4-0.2-0.8-0.5-1.1-0.7C47.2,136.2,46.7,135.9,46.3,135.6z"/>
	<path class="st1" d="M46,135.4c-0.4-0.2-0.9,0-1.1,0.5c-0.1,0.3,0,0.6-0.1,0.9c-0.1,0.7-0.1,1.4-0.2,2.2c0,0.1,0,0.2,0.1,0.3
		c0.1-1,0.1-1.9,0.2-2.9c0-0.3,0.1-0.7,0.4-0.9c0.3-0.2,0.6,0,0.9,0.2c0.4,0.3,0.9,0.6,1.3,0.9c0.4,0.3,0.7,0.5,1.1,0.7
		c0,0,0-0.1,0-0.1C47.8,136.6,46.9,135.9,46,135.4z"/>
	<path class="st2" d="M53.2,128.2c-0.8,0.3-1.7,0.5-2.5,0.8c-0.2,0.1-0.4,0.1-0.5,0.3c-0.2,0.3-0.2,0.7,0.1,1
		c0.6,0.6,1.3,1.2,1.9,1.8c0.1,0.1,0.3,0.2,0.4,0.4c0.6-1.4,1-2.9,1-4.4h0v0C53.5,128.1,53.4,128.2,53.2,128.2z"/>
	<path class="st2" d="M50.3,130.4c0.6,0.5,1.1,1,1.7,1.5c0.2,0.2,0.3,0.4,0.6,0.5c-0.1-0.2-0.3-0.3-0.4-0.4
		c-0.6-0.6-1.3-1.2-1.9-1.8c-0.3-0.3-0.3-0.6-0.1-1c0.1-0.2,0.3-0.2,0.5-0.3c0.8-0.3,1.7-0.5,2.5-0.8c0.1,0,0.3-0.1,0.4-0.2v0
		c-1,0.3-1.9,0.6-2.9,0.9C50,129.1,49.7,129.9,50.3,130.4z"/>
	<path class="st1" d="M30.8,132.2c0.7-0.6,1.4-1.2,2-1.9c0.5-0.5,0.4-1.1-0.3-1.3c-0.8-0.3-1.7-0.5-2.6-0.8c-0.1,0-0.3-0.1-0.3-0.2
		c0,0.4,0,0.8,0.1,1.2c0.2,1.1,0.4,2.2,0.9,3.3l0,0C30.7,132.3,30.8,132.3,30.8,132.2z"/>
	<path class="st1" d="M32.7,128.9c-0.3-0.1-0.6-0.2-0.9-0.3c-0.7-0.2-1.4-0.4-2.1-0.6c0.1,0.1,0.2,0.1,0.3,0.2
		c0.9,0.3,1.7,0.5,2.6,0.8c0.7,0.2,0.8,0.8,0.3,1.3c-0.7,0.6-1.3,1.3-2,1.9c-0.1,0.1-0.2,0.1-0.2,0.3c0.8-0.7,1.6-1.4,2.3-2.1
		C33.5,129.8,33.3,129.1,32.7,128.9z"/>
	<path class="st1" d="M49.3,118.9c-0.3,0.7-0.6,1.5-0.9,2.2c-0.1,0.2-0.1,0.3-0.2,0.5c-0.1,0.5,0.3,0.9,0.8,0.8
		c0.6-0.1,1.2-0.2,1.8-0.3c0.4-0.1,0.9-0.2,1.4-0.2c-0.7-1.4-1.6-2.5-2.8-3.5C49.4,118.7,49.4,118.8,49.3,118.9z"/>
	<path class="st1" d="M49.2,119.1c-0.3,0.8-0.6,1.6-0.9,2.4c-0.2,0.5,0.1,1.2,0.9,1.1c0.7-0.1,1.5-0.2,2.2-0.3c0.3,0,0.6,0,0.8-0.2
		c-0.5,0-0.9,0.1-1.4,0.2c-0.6,0.1-1.2,0.2-1.8,0.3c-0.5,0.1-0.8-0.3-0.8-0.8c0-0.2,0.1-0.4,0.2-0.5c0.3-0.7,0.6-1.5,0.9-2.2
		c0.1-0.1,0.1-0.3,0.1-0.4l0,0C49.3,118.7,49.2,118.9,49.2,119.1z"/>
	<path class="st1" d="M40.9,118.4c0.4,0.7,1,0.7,1.4,0c0.4-0.8,0.9-1.6,1.4-2.4c0-0.1,0.1-0.1,0.2-0.2c-0.3-0.1-0.7-0.1-1-0.2
		c-1.2-0.1-2.4-0.1-3.5,0.2c0,0,0,0,0,0c0.3,0.4,0.5,0.8,0.8,1.3C40.4,117.5,40.7,118,40.9,118.4z"/>
	<path class="st1" d="M42.4,118.5c0.1-0.2,0.3-0.5,0.4-0.7c0.4-0.7,0.8-1.3,1.1-2c-0.1,0.1-0.1,0.1-0.2,0.2
		c-0.4,0.8-0.9,1.6-1.4,2.4c-0.4,0.7-1,0.7-1.4,0c-0.3-0.4-0.5-0.9-0.8-1.3c-0.3-0.4-0.5-0.9-0.8-1.3c0.5,0.9,1,1.8,1.5,2.7
		C41.2,119.1,42,119.2,42.4,118.5z"/>
	<path class="st1" d="M34.1,122.4c0.6,0,1-0.4,0.8-1c-0.2-0.5-0.4-1.1-0.6-1.6c-0.1-0.3-0.2-0.6-0.4-0.9c0-0.1-0.1-0.2-0.1-0.4
		c-1.2,1-2.1,2.1-2.8,3.5c0,0,0,0,0,0c0.9,0.1,1.9,0.3,2.8,0.4C34,122.4,34,122.4,34.1,122.4z"/>
	<path class="st1" d="M31.3,122.1c0.9,0.1,1.8,0.3,2.7,0.4c0.7,0.1,1.2-0.3,1-1c0-0.2-0.1-0.4-0.2-0.6c-0.3-0.8-0.6-1.6-1-2.4
		c0,0.1,0,0.2,0.1,0.4c0.1,0.3,0.3,0.6,0.4,0.9c0.2,0.5,0.4,1.1,0.6,1.6c0.2,0.6-0.1,1.1-0.8,1c-0.1,0-0.2,0-0.3,0
		c-0.9-0.1-1.9-0.3-2.8-0.4C31.1,122.1,31.2,122.1,31.3,122.1z"/>
	<path class="st1" d="M45.7,129.7C45.7,129.7,45.7,129.7,45.7,129.7c0.3-0.5,0.5-1.1,0.5-1.7c0.1-1.5-0.5-2.8-1.7-3.7
		c-1.3-1-2.6-1.2-4.2-0.7c-0.1,0-0.2,0.1-0.4,0.1c0,0,0,0,0,0c0,0,0,0,0,0c-1.1,0.5-1.9,1.3-2.3,2.4c-0.5,1.3-0.4,2.6,0.2,3.8
		c0.1,0.1,0.2,0.3,0.2,0.4h0c0.3,0.3,0.5,0.6,0.8,0.8c1.5,1.1,3.1,1.3,4.7,0.6c0.7-0.3,1.3-0.9,1.8-1.5
		C45.5,129.9,45.6,129.8,45.7,129.7L45.7,129.7z M41.6,131.4c-2.1,0-3.8-1.7-3.8-3.8c0-2.1,1.7-3.8,3.8-3.8c2.1,0,3.8,1.7,3.8,3.8
		C45.4,129.8,43.7,131.4,41.6,131.4z"/>
	<path class="st3" d="M45.7,129.7L45.7,129.7c-0.1,0.1-0.2,0.3-0.2,0.4C45.6,130,45.7,129.8,45.7,129.7z"/>
	<path class="st3" d="M40.4,123.4c-0.2-0.1-0.3,0-0.4,0.1c0,0,0,0,0,0C40.1,123.5,40.2,123.5,40.4,123.4z"/>
	<path class="st3" d="M37.9,129.8c0,0.2,0.1,0.3,0.2,0.4l0,0h0C38.1,130.1,38,129.9,37.9,129.8z"/>
</g>
<g>
	<path class="st0" d="M195.9,123.8c-0.2-1.3-0.6-2.6-1.3-3.8c-0.3,0.2-0.6,0.1-0.8,0.2c-0.7,0.1-1.5,0.2-2.2,0.3
		c-0.8,0.1-1.1-0.6-0.9-1.1c0.3-0.8,0.6-1.6,0.9-2.4c0.1-0.2,0.2-0.4,0.2-0.6l0,0v0c-1.6-1.4-3.4-2.3-5.5-2.7
		c-0.3,0.7-0.7,1.3-1.1,2c-0.1,0.2-0.3,0.5-0.4,0.7c-0.3,0.7-1.2,0.6-1.5,0.1c-0.5-0.9-1.1-1.8-1.5-2.7c0,0,0,0,0,0
		c-0.8,0.1-1.5,0.4-2.3,0.7c-1.2,0.5-2.3,1.1-3.3,2c0.4,0.8,0.6,1.6,1,2.4c0.1,0.2,0.2,0.4,0.2,0.6c0.1,0.7-0.3,1.1-1,1
		c-0.9-0.1-1.8-0.3-2.7-0.4c-0.1,0-0.2,0-0.2-0.1c0,0,0,0,0,0c0,0,0,0.1-0.1,0.1c-1,1.9-1.4,3.8-1.3,5.9c0.7,0.2,1.4,0.4,2.1,0.6
		c0.3,0.1,0.6,0.2,0.9,0.3c0.7,0.2,0.8,0.9,0.3,1.4c-0.8,0.7-1.5,1.5-2.3,2.1v0c0.1,0.4,0.3,0.8,0.5,1.1c0.8,1.5,1.9,2.7,3.3,3.7
		c0-0.1,0.1-0.1,0.2-0.2c0.8-0.5,1.6-1,2.3-1.6c0.3-0.2,0.6-0.3,0.9-0.1c0.3,0.2,0.4,0.5,0.4,0.9c0.1,0.9,0.1,1.9,0.2,2.8
		c0,0.1,0,0.2-0.1,0.2c0,0,0,0,0,0c0.7,0.2,1.4,0.3,2.1,0.4c1.4,0.1,2.8,0,4.1-0.4c-0.1-0.1-0.1-0.2-0.1-0.3
		c0.1-0.7,0.1-1.4,0.2-2.2c0-0.3,0-0.6,0.1-0.9c0.1-0.5,0.7-0.7,1.1-0.5c0.9,0.5,1.8,1.2,2.7,1.8c0,0,0,0,0,0.1c0,0,0,0,0,0
		c1.7-1.3,3-2.9,3.9-4.8c-0.2-0.1-0.4-0.3-0.6-0.5c-0.6-0.5-1.1-1.1-1.7-1.5c-0.6-0.5-0.4-1.4,0.3-1.5c1-0.2,1.9-0.6,2.9-0.9
		C196,125.3,196,124.5,195.9,123.8z M190.1,129.5c-0.2,0.2-0.3,0.1-0.5-0.1c-0.6-0.5-1.2-1-1.8-1.4c-0.5,0.6-1,1.2-1.8,1.5
		c-1.7,0.7-3.3,0.6-4.7-0.6c-0.3-0.2-0.5-0.6-0.8-0.8c-0.5,0.3-1,0.6-1.4,0.8c-0.2,0.1-0.3,0.1-0.4-0.1c-0.1-0.2,0-0.3,0.1-0.4
		c0.5-0.3,1-0.6,1.5-0.8c-0.7-1.2-0.8-2.5-0.2-3.8c0.4-1.1,1.2-1.9,2.3-2.4c0,0,0,0,0,0c-0.1,0-0.1-0.1-0.1-0.2
		c-0.2-0.5-0.4-0.9-0.6-1.4c-0.1-0.2-0.1-0.3,0.1-0.4c0.2-0.1,0.3,0,0.4,0.2c0.2,0.6,0.6,1.1,0.7,1.7c1.5-0.5,2.9-0.3,4.2,0.7
		c1.2,0.9,1.7,2.2,1.7,3.7c0,0.6-0.2,1.2-0.5,1.7c0,0,0,0,0,0c0.7,0.4,1.4,0.9,2,1.5C190.2,129.2,190.3,129.3,190.1,129.5z"/>
	<path class="st1" d="M179.5,133.5c-0.8,0.5-1.5,1-2.3,1.6c-0.1,0.1-0.2,0.2-0.3,0.2c1.2,0.9,2.5,1.6,4,2c0,0,0,0,0,0
		c0-1-0.1-2.1-0.2-3.1C180.6,133.4,180,133.2,179.5,133.5z"/>
	<path class="st1" d="M180.9,137c-0.1-0.9-0.2-1.9-0.2-2.8c0-0.4-0.1-0.7-0.4-0.9c-0.3-0.2-0.6-0.1-0.9,0.1
		c-0.8,0.5-1.6,1.1-2.3,1.6c-0.1,0.1-0.1,0.1-0.2,0.2c0.1,0,0.2-0.1,0.3-0.2c0.8-0.5,1.5-1.1,2.3-1.6c0.6-0.3,1.1-0.1,1.2,0.6
		c0.1,1,0.2,2.1,0.2,3.1C180.9,137.2,181,137.1,180.9,137z"/>
	<path class="st1" d="M188.7,133.6c-0.3-0.2-0.6-0.3-0.9-0.2c-0.3,0.2-0.4,0.5-0.4,0.9c-0.1,1-0.2,1.9-0.2,2.9c1.5-0.4,2.8-1,4-1.9
		l0,0c-0.4-0.2-0.8-0.5-1.1-0.7C189.5,134.2,189.1,133.9,188.7,133.6z"/>
	<path class="st1" d="M188.4,133.4c-0.4-0.2-0.9,0-1.1,0.5c-0.1,0.3,0,0.6-0.1,0.9c-0.1,0.7-0.1,1.4-0.2,2.2c0,0.1,0,0.2,0.1,0.3
		c0.1-1,0.1-1.9,0.2-2.9c0-0.3,0.1-0.7,0.4-0.9c0.3-0.2,0.6,0,0.9,0.2c0.4,0.3,0.9,0.6,1.3,0.9c0.4,0.3,0.7,0.5,1.1,0.7
		c0,0,0-0.1,0-0.1C190.2,134.6,189.3,133.9,188.4,133.4z"/>
	<path class="st2" d="M195.6,126.2c-0.8,0.3-1.7,0.5-2.5,0.8c-0.2,0.1-0.4,0.1-0.5,0.3c-0.2,0.3-0.2,0.7,0.1,1
		c0.6,0.6,1.3,1.2,1.9,1.8c0.1,0.1,0.3,0.2,0.4,0.4c0.6-1.4,1-2.9,1-4.4h0v0C195.9,126.1,195.7,126.2,195.6,126.2z"/>
	<path class="st2" d="M192.7,128.4c0.6,0.5,1.1,1,1.7,1.5c0.2,0.2,0.3,0.4,0.6,0.5c-0.1-0.2-0.3-0.3-0.4-0.4
		c-0.6-0.6-1.3-1.2-1.9-1.8c-0.3-0.3-0.3-0.6-0.1-1c0.1-0.2,0.3-0.2,0.5-0.3c0.8-0.3,1.7-0.5,2.5-0.8c0.1,0,0.3-0.1,0.4-0.2v0
		c-1,0.3-1.9,0.6-2.9,0.9C192.4,127.1,192.1,127.9,192.7,128.4z"/>
	<path class="st1" d="M173.2,130.2c0.7-0.6,1.4-1.2,2-1.9c0.5-0.5,0.4-1.1-0.3-1.3c-0.8-0.3-1.7-0.5-2.6-0.8c-0.1,0-0.3-0.1-0.3-0.2
		c0,0.4,0,0.8,0.1,1.2c0.2,1.1,0.4,2.2,0.9,3.3l0,0C173,130.3,173.1,130.3,173.2,130.2z"/>
	<path class="st1" d="M175,126.9c-0.3-0.1-0.6-0.2-0.9-0.3c-0.7-0.2-1.4-0.4-2.1-0.6c0.1,0.1,0.2,0.1,0.3,0.2
		c0.9,0.3,1.7,0.5,2.6,0.8c0.7,0.2,0.8,0.8,0.3,1.3c-0.7,0.6-1.3,1.3-2,1.9c-0.1,0.1-0.2,0.1-0.2,0.3c0.8-0.7,1.6-1.4,2.3-2.1
		C175.9,127.8,175.7,127.1,175,126.9z"/>
	<path class="st1" d="M191.7,116.9c-0.3,0.7-0.6,1.5-0.9,2.2c-0.1,0.2-0.1,0.3-0.2,0.5c-0.1,0.5,0.3,0.9,0.8,0.8
		c0.6-0.1,1.2-0.2,1.8-0.3c0.4-0.1,0.9-0.2,1.4-0.2c-0.7-1.4-1.6-2.5-2.8-3.5C191.8,116.7,191.8,116.8,191.7,116.9z"/>
	<path class="st1" d="M191.5,117.1c-0.3,0.8-0.6,1.6-0.9,2.4c-0.2,0.5,0.1,1.2,0.9,1.1c0.7-0.1,1.5-0.2,2.2-0.3c0.3,0,0.6,0,0.8-0.2
		c-0.5,0-0.9,0.1-1.4,0.2c-0.6,0.1-1.2,0.2-1.8,0.3c-0.5,0.1-0.8-0.3-0.8-0.8c0-0.2,0.1-0.4,0.2-0.5c0.3-0.7,0.6-1.5,0.9-2.2
		c0.1-0.1,0.1-0.3,0.1-0.4l0,0C191.7,116.7,191.6,116.9,191.5,117.1z"/>
	<path class="st1" d="M183.3,116.4c0.4,0.7,1,0.7,1.4,0c0.4-0.8,0.9-1.6,1.4-2.4c0-0.1,0.1-0.1,0.2-0.2c-0.3-0.1-0.7-0.1-1-0.2
		c-1.2-0.1-2.4-0.1-3.5,0.2c0,0,0,0,0,0c0.3,0.4,0.5,0.8,0.8,1.3C182.8,115.5,183,116,183.3,116.4z"/>
	<path class="st1" d="M184.8,116.5c0.1-0.2,0.3-0.5,0.4-0.7c0.4-0.7,0.8-1.3,1.1-2c-0.1,0.1-0.1,0.1-0.2,0.2
		c-0.4,0.8-0.9,1.6-1.4,2.4c-0.4,0.7-1,0.7-1.4,0c-0.3-0.4-0.5-0.9-0.8-1.3c-0.3-0.4-0.5-0.9-0.8-1.3c0.5,0.9,1,1.8,1.5,2.7
		C183.6,117.1,184.4,117.2,184.8,116.5z"/>
	<path class="st1" d="M176.5,120.4c0.6,0,1-0.4,0.8-1c-0.2-0.5-0.4-1.1-0.6-1.6c-0.1-0.3-0.2-0.6-0.4-0.9c0-0.1-0.1-0.2-0.1-0.4
		c-1.2,1-2.1,2.1-2.8,3.5c0,0,0,0,0,0c0.9,0.1,1.9,0.3,2.8,0.4C176.3,120.4,176.4,120.4,176.5,120.4z"/>
	<path class="st1" d="M173.6,120.1c0.9,0.1,1.8,0.3,2.7,0.4c0.7,0.1,1.2-0.3,1-1c0-0.2-0.1-0.4-0.2-0.6c-0.3-0.8-0.6-1.6-1-2.4
		c0,0.1,0,0.2,0.1,0.4c0.1,0.3,0.3,0.6,0.4,0.9c0.2,0.5,0.4,1.1,0.6,1.6c0.2,0.6-0.1,1.1-0.8,1c-0.1,0-0.2,0-0.3,0
		c-0.9-0.1-1.9-0.3-2.8-0.4C173.5,120.1,173.5,120.1,173.6,120.1z"/>
	<path class="st1" d="M188.1,127.6C188.1,127.6,188.1,127.6,188.1,127.6c0.3-0.5,0.5-1.1,0.5-1.7c0.1-1.5-0.5-2.8-1.7-3.7
		c-1.3-1-2.6-1.2-4.2-0.7c-0.1,0-0.2,0.1-0.4,0.1c0,0,0,0,0,0c0,0,0,0,0,0c-1.1,0.5-1.9,1.3-2.3,2.4c-0.5,1.3-0.4,2.6,0.2,3.8
		c0.1,0.1,0.2,0.3,0.2,0.4h0c0.3,0.3,0.5,0.6,0.8,0.8c1.5,1.1,3.1,1.3,4.7,0.6c0.7-0.3,1.3-0.9,1.8-1.5
		C187.9,127.9,188,127.8,188.1,127.6L188.1,127.6z M184,129.4c-2.1,0-3.8-1.7-3.8-3.8c0-2.1,1.7-3.8,3.8-3.8c2.1,0,3.8,1.7,3.8,3.8
		C187.8,127.7,186.1,129.4,184,129.4z"/>
	<path class="st3" d="M188.1,127.6L188.1,127.6c-0.1,0.1-0.2,0.3-0.2,0.4C188,128,188.1,127.8,188.1,127.6z"/>
	<path class="st3" d="M182.7,121.4c-0.2-0.1-0.3,0-0.4,0.1c0,0,0,0,0,0C182.5,121.5,182.6,121.5,182.7,121.4z"/>
	<path class="st3" d="M180.3,127.8c0,0.2,0.1,0.3,0.2,0.4l0,0h0C180.4,128,180.4,127.9,180.3,127.8z"/>
</g>
<g>
	<path class="st0" d="M62.4,198.2c-0.2-1.3-0.6-2.6-1.3-3.8c-0.3,0.2-0.6,0.1-0.8,0.2c-0.7,0.1-1.5,0.2-2.2,0.3
		c-0.8,0.1-1.1-0.6-0.9-1.1c0.3-0.8,0.6-1.6,0.9-2.4c0.1-0.2,0.2-0.4,0.2-0.6l0,0v0c-1.6-1.4-3.4-2.3-5.5-2.7
		c-0.3,0.7-0.7,1.3-1.1,2c-0.1,0.2-0.3,0.5-0.4,0.7c-0.3,0.7-1.2,0.6-1.5,0.1c-0.5-0.9-1.1-1.8-1.5-2.7c0,0,0,0,0,0
		c-0.8,0.1-1.5,0.4-2.3,0.7c-1.2,0.5-2.3,1.1-3.3,2c0.4,0.8,0.6,1.6,1,2.4c0.1,0.2,0.2,0.4,0.2,0.6c0.1,0.7-0.3,1.1-1,1
		c-0.9-0.1-1.8-0.3-2.7-0.4c-0.1,0-0.2,0-0.2-0.1c0,0,0,0,0,0c0,0,0,0.1-0.1,0.1c-1,1.9-1.4,3.8-1.3,5.9c0.7,0.2,1.4,0.4,2.1,0.6
		c0.3,0.1,0.6,0.2,0.9,0.3c0.7,0.2,0.8,0.9,0.3,1.4c-0.8,0.7-1.5,1.5-2.3,2.1v0c0.1,0.4,0.3,0.8,0.5,1.1c0.8,1.5,1.9,2.7,3.3,3.7
		c0-0.1,0.1-0.1,0.2-0.2c0.8-0.5,1.6-1,2.3-1.6c0.3-0.2,0.6-0.3,0.9-0.1c0.3,0.2,0.4,0.5,0.4,0.9c0.1,0.9,0.1,1.9,0.2,2.8
		c0,0.1,0,0.2-0.1,0.2c0,0,0,0,0,0c0.7,0.2,1.4,0.3,2.1,0.4c1.4,0.1,2.8,0,4.1-0.4c-0.1-0.1-0.1-0.2-0.1-0.3
		c0.1-0.7,0.1-1.4,0.2-2.2c0-0.3,0-0.6,0.1-0.9c0.1-0.5,0.7-0.7,1.1-0.5c0.9,0.5,1.8,1.2,2.7,1.8c0,0,0,0,0,0.1c0,0,0,0,0,0
		c1.7-1.3,3-2.9,3.9-4.8c-0.2-0.1-0.4-0.3-0.6-0.5c-0.6-0.5-1.1-1.1-1.7-1.5c-0.6-0.5-0.4-1.4,0.3-1.5c1-0.2,1.9-0.6,2.9-0.9
		C62.6,199.6,62.5,198.9,62.4,198.2z M56.7,203.9c-0.2,0.2-0.3,0.1-0.5-0.1c-0.6-0.5-1.2-1-1.8-1.4c-0.5,0.6-1,1.2-1.8,1.5
		c-1.7,0.7-3.3,0.6-4.7-0.6c-0.3-0.2-0.5-0.6-0.8-0.8c-0.5,0.3-1,0.6-1.4,0.8c-0.2,0.1-0.3,0.1-0.4-0.1c-0.1-0.2,0-0.3,0.1-0.4
		c0.5-0.3,1-0.6,1.5-0.8c-0.7-1.2-0.8-2.5-0.2-3.8c0.4-1.1,1.2-1.9,2.3-2.4c0,0,0,0,0,0c-0.1,0-0.1-0.1-0.1-0.2
		c-0.2-0.5-0.4-0.9-0.6-1.4c-0.1-0.2-0.1-0.3,0.1-0.4c0.2-0.1,0.3,0,0.4,0.2c0.2,0.6,0.6,1.1,0.7,1.7c1.5-0.5,2.9-0.3,4.2,0.7
		c1.2,0.9,1.7,2.2,1.7,3.7c0,0.6-0.2,1.2-0.5,1.7c0,0,0,0,0,0c0.7,0.4,1.4,0.9,2,1.5C56.7,203.6,56.9,203.7,56.7,203.9z"/>
	<path class="st1" d="M46,207.9c-0.8,0.5-1.5,1-2.3,1.6c-0.1,0.1-0.2,0.2-0.3,0.2c1.2,0.9,2.5,1.6,4,2c0,0,0,0,0,0
		c0-1-0.1-2.1-0.2-3.1C47.1,207.8,46.6,207.5,46,207.9z"/>
	<path class="st1" d="M47.5,211.4c-0.1-0.9-0.2-1.9-0.2-2.8c0-0.4-0.1-0.7-0.4-0.9c-0.3-0.2-0.6-0.1-0.9,0.1
		c-0.8,0.5-1.6,1.1-2.3,1.6c-0.1,0.1-0.1,0.1-0.2,0.2c0.1,0,0.2-0.1,0.3-0.2c0.8-0.5,1.5-1.1,2.3-1.6c0.6-0.3,1.1-0.1,1.2,0.6
		c0.1,1,0.2,2.1,0.2,3.1C47.5,211.5,47.5,211.5,47.5,211.4z"/>
	<path class="st1" d="M55.2,208c-0.3-0.2-0.6-0.3-0.9-0.2c-0.3,0.2-0.4,0.5-0.4,0.9c-0.1,1-0.2,1.9-0.2,2.9c1.5-0.4,2.8-1,4-1.9l0,0
		c-0.4-0.2-0.8-0.5-1.1-0.7C56.1,208.6,55.7,208.3,55.2,208z"/>
	<path class="st1" d="M54.9,207.7c-0.4-0.2-0.9,0-1.1,0.5c-0.1,0.3,0,0.6-0.1,0.9c-0.1,0.7-0.1,1.4-0.2,2.2c0,0.1,0,0.2,0.1,0.3
		c0.1-1,0.1-1.9,0.2-2.9c0-0.3,0.1-0.7,0.4-0.9c0.3-0.2,0.6,0,0.9,0.2c0.4,0.3,0.9,0.6,1.3,0.9c0.4,0.3,0.7,0.5,1.1,0.7
		c0,0,0-0.1,0-0.1C56.8,208.9,55.9,208.3,54.9,207.7z"/>
	<path class="st2" d="M62.2,200.6c-0.8,0.3-1.7,0.5-2.5,0.8c-0.2,0.1-0.4,0.1-0.5,0.3c-0.2,0.3-0.2,0.7,0.1,1
		c0.6,0.6,1.3,1.2,1.9,1.8c0.1,0.1,0.3,0.2,0.4,0.4c0.6-1.4,1-2.9,1-4.4h0v0C62.5,200.5,62.3,200.5,62.2,200.6z"/>
	<path class="st2" d="M59.3,202.8c0.6,0.5,1.1,1,1.7,1.5c0.2,0.2,0.3,0.4,0.6,0.5c-0.1-0.2-0.3-0.3-0.4-0.4
		c-0.6-0.6-1.3-1.2-1.9-1.8c-0.3-0.3-0.3-0.6-0.1-1c0.1-0.2,0.3-0.2,0.5-0.3c0.8-0.3,1.7-0.5,2.5-0.8c0.1,0,0.3-0.1,0.4-0.2v0
		c-1,0.3-1.9,0.6-2.9,0.9C58.9,201.4,58.7,202.3,59.3,202.8z"/>
	<path class="st1" d="M39.8,204.6c0.7-0.6,1.4-1.2,2-1.9c0.5-0.5,0.4-1.1-0.3-1.3c-0.8-0.3-1.7-0.5-2.6-0.8c-0.1,0-0.3-0.1-0.3-0.2
		c0,0.4,0,0.8,0.1,1.2c0.2,1.1,0.4,2.2,0.9,3.3l0,0C39.6,204.7,39.7,204.6,39.8,204.6z"/>
	<path class="st1" d="M41.6,201.3c-0.3-0.1-0.6-0.2-0.9-0.3c-0.7-0.2-1.4-0.4-2.1-0.6c0.1,0.1,0.2,0.1,0.3,0.2
		c0.9,0.3,1.7,0.5,2.6,0.8c0.7,0.2,0.8,0.8,0.3,1.3c-0.7,0.6-1.3,1.3-2,1.9c-0.1,0.1-0.2,0.1-0.2,0.3c0.8-0.7,1.6-1.4,2.3-2.1
		C42.4,202.2,42.2,201.5,41.6,201.3z"/>
	<path class="st1" d="M58.3,191.3c-0.3,0.7-0.6,1.5-0.9,2.2c-0.1,0.2-0.1,0.3-0.2,0.5c-0.1,0.5,0.3,0.9,0.8,0.8
		c0.6-0.1,1.2-0.2,1.8-0.3c0.4-0.1,0.9-0.2,1.4-0.2c-0.7-1.4-1.6-2.5-2.8-3.5C58.4,191,58.3,191.2,58.3,191.3z"/>
	<path class="st1" d="M58.1,191.4c-0.3,0.8-0.6,1.6-0.9,2.4c-0.2,0.5,0.1,1.2,0.9,1.1c0.7-0.1,1.5-0.2,2.2-0.3c0.3,0,0.6,0,0.8-0.2
		c-0.5,0-0.9,0.1-1.4,0.2c-0.6,0.1-1.2,0.2-1.8,0.3c-0.5,0.1-0.8-0.3-0.8-0.8c0-0.2,0.1-0.4,0.2-0.5c0.3-0.7,0.6-1.5,0.9-2.2
		c0.1-0.1,0.1-0.3,0.1-0.4l0,0C58.3,191.1,58.2,191.3,58.1,191.4z"/>
	<path class="st1" d="M49.9,190.8c0.4,0.7,1,0.7,1.4,0c0.4-0.8,0.9-1.6,1.4-2.4c0-0.1,0.1-0.1,0.2-0.2c-0.3-0.1-0.7-0.1-1-0.2
		c-1.2-0.1-2.4-0.1-3.5,0.2c0,0,0,0,0,0c0.3,0.4,0.5,0.8,0.8,1.3C49.4,189.9,49.6,190.4,49.9,190.8z"/>
	<path class="st1" d="M51.3,190.9c0.1-0.2,0.3-0.5,0.4-0.7c0.4-0.7,0.8-1.3,1.1-2c-0.1,0.1-0.1,0.1-0.2,0.2
		c-0.4,0.8-0.9,1.6-1.4,2.4c-0.4,0.7-1,0.7-1.4,0c-0.3-0.4-0.5-0.9-0.8-1.3c-0.3-0.4-0.5-0.9-0.8-1.3c0.5,0.9,1,1.8,1.5,2.7
		C50.1,191.5,51,191.6,51.3,190.9z"/>
	<path class="st1" d="M43.1,194.8c0.6,0,1-0.4,0.8-1c-0.2-0.5-0.4-1.1-0.6-1.6c-0.1-0.3-0.2-0.6-0.4-0.9c0-0.1-0.1-0.2-0.1-0.4
		c-1.2,1-2.1,2.1-2.8,3.5c0,0,0,0,0,0c0.9,0.1,1.9,0.3,2.8,0.4C42.9,194.8,43,194.8,43.1,194.8z"/>
	<path class="st1" d="M40.2,194.5c0.9,0.1,1.8,0.3,2.7,0.4c0.7,0.1,1.2-0.3,1-1c0-0.2-0.1-0.4-0.2-0.6c-0.3-0.8-0.6-1.6-1-2.4
		c0,0.1,0,0.2,0.1,0.4c0.1,0.3,0.3,0.6,0.4,0.9c0.2,0.5,0.4,1.1,0.6,1.6c0.2,0.6-0.1,1.1-0.8,1c-0.1,0-0.2,0-0.3,0
		c-0.9-0.1-1.9-0.3-2.8-0.4C40,194.4,40.1,194.5,40.2,194.5z"/>
	<path class="st1" d="M54.6,202C54.6,202,54.6,202,54.6,202c0.3-0.5,0.5-1.1,0.5-1.7c0.1-1.5-0.5-2.8-1.7-3.7
		c-1.3-1-2.6-1.2-4.2-0.7c-0.1,0-0.2,0.1-0.4,0.1c0,0,0,0,0,0c0,0,0,0,0,0c-1.1,0.5-1.9,1.3-2.3,2.4c-0.5,1.3-0.4,2.6,0.2,3.8
		c0.1,0.1,0.2,0.3,0.2,0.4h0c0.3,0.3,0.5,0.6,0.8,0.8c1.5,1.1,3.1,1.3,4.7,0.6c0.7-0.3,1.3-0.9,1.8-1.5
		C54.5,202.3,54.6,202.2,54.6,202L54.6,202z M50.6,203.8c-2.1,0-3.8-1.7-3.8-3.8c0-2.1,1.7-3.8,3.8-3.8c2.1,0,3.8,1.7,3.8,3.8
		C54.4,202.1,52.7,203.8,50.6,203.8z"/>
	<path class="st3" d="M54.6,202L54.6,202c-0.1,0.1-0.2,0.3-0.2,0.4C54.6,202.3,54.7,202.2,54.6,202z"/>
	<path class="st3" d="M49.3,195.8c-0.2-0.1-0.3,0-0.4,0.1c0,0,0,0,0,0C49.1,195.9,49.2,195.9,49.3,195.8z"/>
	<path class="st3" d="M46.9,202.1c0,0.2,0.1,0.3,0.2,0.4l0,0h0C47,202.4,46.9,202.3,46.9,202.1z"/>
</g>
</svg>
